<svg id="Layer_1" data-name="Layer 1" xmlns="http://www.w3.org/2000/svg" viewBox="0 0 134.41 156.18"><defs><style>.cls-1{fill:#47789e;}.cls-2{fill:#ffac74;}.cls-3,.cls-4,.cls-5,.cls-6,.cls-7,.cls-8{fill:none;stroke:#000;}.cls-3,.cls-4,.cls-5,.cls-6{stroke-linejoin:round;}.cls-3,.cls-8{stroke-width:0.8px;}.cls-5{stroke-dasharray:3.7 1.6;}.cls-6,.cls-7,.cls-8{stroke-linecap:square;}.cls-7,.cls-8{stroke-miterlimit:10;}.cls-7{stroke-width:0.69px;}</style></defs><rect class="cls-1" x="38.99" y="29.39" width="31.89" height="98.37"/><rect class="cls-2" x="78.85" y="17.13" width="31.89" height="110.63"/><line class="cls-3" x1="54.93" y1="127.76" x2="54.93" y2="131.26"/><path d="M41.93,136.17v.77a4,4,0,0,0-.76-.32,2.45,2.45,0,0,0-.69-.1,1.4,1.4,0,0,0-.9.25.84.84,0,0,0-.31.71.75.75,0,0,0,.21.58,1.69,1.69,0,0,0,.79.32l.43.1a2.09,2.09,0,0,1,1.17.59,1.65,1.65,0,0,1,.38,1.14,1.59,1.59,0,0,1-.51,1.28,2.26,2.26,0,0,1-1.5.44,3.23,3.23,0,0,1-.79-.1,5.39,5.39,0,0,1-.87-.27v-.82a3.88,3.88,0,0,0,.85.41,2.56,2.56,0,0,0,.81.14,1.44,1.44,0,0,0,.94-.27,1,1,0,0,0,.09-1.43,1.58,1.58,0,0,0-.78-.36l-.43-.1a2.17,2.17,0,0,1-1.15-.55,1.47,1.47,0,0,1-.35-1,1.57,1.57,0,0,1,.49-1.22,2,2,0,0,1,1.35-.44,3.81,3.81,0,0,1,.75.07A5.69,5.69,0,0,1,41.93,136.17Z" transform="translate(-1.05 -0.98)"/><path d="M44.57,142.22a2.71,2.71,0,0,1-.53,1,1,1,0,0,1-.7.24h-.51v-.6h.38a.6.6,0,0,0,.41-.14,1.92,1.92,0,0,0,.33-.67l.12-.33-1.6-4.3h.69l1.23,3.42,1.23-3.42h.68Z" transform="translate(-1.05 -0.98)"/><path d="M50.47,139.17v2.64h-.65V139.2a1.56,1.56,0,0,0-.22-.93A.73.73,0,0,0,49,138a1,1,0,0,0-.83.37,1.58,1.58,0,0,0-.3,1v2.47h-.65v-4.37h.65v.68a1.66,1.66,0,0,1,.55-.59,1.32,1.32,0,0,1,.72-.2,1.21,1.21,0,0,1,1,.47A2.29,2.29,0,0,1,50.47,139.17Z" transform="translate(-1.05 -0.98)"/><path d="M52.4,136.2v1.24h1.33V138H52.4v2.37a1.15,1.15,0,0,0,.13.69.7.7,0,0,0,.53.15h.67v.6h-.67a1.35,1.35,0,0,1-1-.31,1.68,1.68,0,0,1-.28-1.13V138h-.48v-.56h.48V136.2Z" transform="translate(-1.05 -0.98)"/><path d="M57.85,139.17v2.64H57.2V139.2a1.56,1.56,0,0,0-.22-.93.73.73,0,0,0-.65-.31,1,1,0,0,0-.82.37,1.52,1.52,0,0,0-.31,1v2.47h-.65v-6.07h.65v2.38a1.75,1.75,0,0,1,.55-.59,1.35,1.35,0,0,1,.73-.2,1.19,1.19,0,0,1,1,.47A2.29,2.29,0,0,1,57.85,139.17Z" transform="translate(-1.05 -0.98)"/><path d="M62.5,139.45v.35h-3a1.78,1.78,0,0,0,.4,1.13,1.3,1.3,0,0,0,1,.39,2.92,2.92,0,0,0,.73-.1,3,3,0,0,0,.69-.31v.68a3.75,3.75,0,0,1-.71.25,3.06,3.06,0,0,1-.74.09,1.91,1.91,0,0,1-1.49-.61,2.37,2.37,0,0,1-.55-1.65,2.61,2.61,0,0,1,.52-1.71,1.73,1.73,0,0,1,1.41-.63,1.53,1.53,0,0,1,1.25.57A2.39,2.39,0,0,1,62.5,139.45Zm-.64-.21a1.54,1.54,0,0,0-.3-1,1,1,0,0,0-.77-.35,1.18,1.18,0,0,0-.87.34,1.55,1.55,0,0,0-.37,1Z" transform="translate(-1.05 -0.98)"/><path d="M64.36,136.2v1.24h1.33V138H64.36v2.37a1.24,1.24,0,0,0,.13.69.73.73,0,0,0,.54.15h.66v.6H65a1.35,1.35,0,0,1-1-.31,1.67,1.67,0,0,1-.29-1.13V138h-.47v-.56h.47V136.2Z" transform="translate(-1.05 -0.98)"/><path d="M66.54,135.74h.65v.91h-.65Zm0,1.7h.65v4.37h-.65Z" transform="translate(-1.05 -0.98)"/><path d="M71.37,137.61v.67a2.18,2.18,0,0,0-.54-.25,1.82,1.82,0,0,0-.56-.09,1.17,1.17,0,0,0-1,.45,2,2,0,0,0-.35,1.24,2,2,0,0,0,.35,1.25,1.19,1.19,0,0,0,1,.44,1.82,1.82,0,0,0,.56-.09,2.18,2.18,0,0,0,.54-.25v.67a2.69,2.69,0,0,1-.56.21,3,3,0,0,1-.61.07,1.77,1.77,0,0,1-1.42-.62,2.59,2.59,0,0,1-.52-1.68,2.51,2.51,0,0,1,.53-1.68,1.82,1.82,0,0,1,1.45-.62,2.79,2.79,0,0,1,.58.07A2.6,2.6,0,0,1,71.37,137.61Z" transform="translate(-1.05 -0.98)"/><line class="cls-3" x1="94.79" y1="127.76" x2="94.79" y2="131.26"/><path d="M81.78,136h1l2.32,4.88V136h.69v5.83h-1l-2.32-4.87v4.87h-.69Z" transform="translate(-1.05 -0.98)"/><path d="M90.21,139.32v2.49h-.64v-.66a1.5,1.5,0,0,1-.55.59,1.67,1.67,0,0,1-.81.19,1.24,1.24,0,0,1-1-.38,1.4,1.4,0,0,1-.36-1,1.39,1.39,0,0,1,.44-1.11,2,2,0,0,1,1.33-.38h.91V139a1,1,0,0,0-.3-.77,1.16,1.16,0,0,0-.82-.27,2.44,2.44,0,0,0-.66.09,2.59,2.59,0,0,0-.62.27v-.66a4.29,4.29,0,0,1,.69-.23,3,3,0,0,1,.65-.08,1.59,1.59,0,0,1,1.28.5A2.23,2.23,0,0,1,90.21,139.32Zm-1.29.3a2.13,2.13,0,0,0-1.08.19.77.77,0,0,0-.31.68.82.82,0,0,0,.23.61.85.85,0,0,0,.62.23,1,1,0,0,0,.86-.43,1.78,1.78,0,0,0,.33-1.12v-.16Z" transform="translate(-1.05 -0.98)"/><path d="M92.27,136.2v1.24H93.6V138H92.27v2.37a1.24,1.24,0,0,0,.13.69.73.73,0,0,0,.54.15h.66v.6h-.66a1.38,1.38,0,0,1-1-.31,1.68,1.68,0,0,1-.28-1.13V138h-.47v-.56h.47V136.2Z" transform="translate(-1.05 -0.98)"/><path d="M94.39,140.09v-2.65H95v2.62a1.58,1.58,0,0,0,.22.93.73.73,0,0,0,.65.31,1,1,0,0,0,.83-.37,1.56,1.56,0,0,0,.3-1v-2.48h.65v4.37H97v-.67a1.49,1.49,0,0,1-.54.59,1.35,1.35,0,0,1-.73.2,1.19,1.19,0,0,1-1-.47A2.22,2.22,0,0,1,94.39,140.09Z" transform="translate(-1.05 -0.98)"/><path d="M101.29,138.11a.64.64,0,0,0-.24-.1,1.11,1.11,0,0,0-.28,0,1,1,0,0,0-.84.4,1.87,1.87,0,0,0-.29,1.14v2.3H99v-4.37h.66v.68a1.33,1.33,0,0,1,.53-.59,1.52,1.52,0,0,1,.79-.2h.15l.18,0Z" transform="translate(-1.05 -0.98)"/><path d="M104.92,139.32v2.49h-.65v-.66a1.5,1.5,0,0,1-.55.59,1.67,1.67,0,0,1-.81.19,1.27,1.27,0,0,1-1-.38,1.4,1.4,0,0,1-.36-1,1.36,1.36,0,0,1,.45-1.11,2,2,0,0,1,1.32-.38h.91V139a1,1,0,0,0-.29-.77,1.18,1.18,0,0,0-.83-.27,2.37,2.37,0,0,0-.65.09,2.43,2.43,0,0,0-.62.27v-.66a4.29,4.29,0,0,1,.69-.23,3,3,0,0,1,.65-.08,1.61,1.61,0,0,1,1.28.5A2.23,2.23,0,0,1,104.92,139.32Zm-1.29.3a2.15,2.15,0,0,0-1.09.19.76.76,0,0,0-.3.68.82.82,0,0,0,.22.61.86.86,0,0,0,.62.23,1,1,0,0,0,.86-.43,1.78,1.78,0,0,0,.33-1.12v-.16Z" transform="translate(-1.05 -0.98)"/><path d="M106.34,135.74H107v6.07h-.64Z" transform="translate(-1.05 -0.98)"/><path d="M39.44,151.66a1.36,1.36,0,0,1,.56.46,4.93,4.93,0,0,1,.54,1l.9,2h-.95l-.84-1.87a2.67,2.67,0,0,0-.63-1,1.32,1.32,0,0,0-.83-.24h-1v3.08h-.89v-7.29h2a2.37,2.37,0,0,1,1.68.52,2.51,2.51,0,0,1,.27,2.72A1.5,1.5,0,0,1,39.44,151.66Zm-2.22-3.06v2.59h1.11a1.29,1.29,0,0,0,1-.33,1.31,1.31,0,0,0,.33-1,1.27,1.27,0,0,0-.33-1,1.29,1.29,0,0,0-1-.33Z" transform="translate(-1.05 -0.98)"/><path d="M46.76,152.12v.44H43a2.21,2.21,0,0,0,.51,1.41,1.61,1.61,0,0,0,1.25.49,3.08,3.08,0,0,0,.91-.13,3.43,3.43,0,0,0,.86-.38v.85a3.91,3.91,0,0,1-.89.31,3.56,3.56,0,0,1-.92.11,2.38,2.38,0,0,1-1.87-.76,3,3,0,0,1-.69-2.06,3.19,3.19,0,0,1,.66-2.13,2.15,2.15,0,0,1,1.76-.79,1.93,1.93,0,0,1,1.57.71A3,3,0,0,1,46.76,152.12Zm-.82-.26a1.81,1.81,0,0,0-.37-1.18,1.18,1.18,0,0,0-1-.44,1.41,1.41,0,0,0-1.09.43,1.87,1.87,0,0,0-.47,1.19Z" transform="translate(-1.05 -0.98)"/><path d="M50.76,147.48v.75H50a.77.77,0,0,0-.61.19,1.13,1.13,0,0,0-.17.71v.48h1.33v.7H49.21v4.77H48.4v-4.77h-.78v-.7h.78v-.38a2,2,0,0,1,.38-1.33,1.56,1.56,0,0,1,1.21-.42Z" transform="translate(-1.05 -0.98)"/><path d="M55.64,152.12v.44H51.91a2.21,2.21,0,0,0,.51,1.41,1.61,1.61,0,0,0,1.25.49,3.08,3.08,0,0,0,.91-.13,3.43,3.43,0,0,0,.86-.38v.85a3.91,3.91,0,0,1-.89.31,3.56,3.56,0,0,1-.92.11,2.38,2.38,0,0,1-1.87-.76,3,3,0,0,1-.69-2.06,3.19,3.19,0,0,1,.66-2.13,2.15,2.15,0,0,1,1.76-.79,1.93,1.93,0,0,1,1.57.71A3,3,0,0,1,55.64,152.12Zm-.82-.26a1.81,1.81,0,0,0-.37-1.18,1.18,1.18,0,0,0-1-.44,1.41,1.41,0,0,0-1.09.43,1.87,1.87,0,0,0-.47,1.19Z" transform="translate(-1.05 -0.98)"/><path d="M60,150.45a1,1,0,0,0-.3-.13,1.29,1.29,0,0,0-.35,0,1.25,1.25,0,0,0-1.06.5,2.38,2.38,0,0,0-.36,1.42v2.88h-.82v-5.47h.82v.85a1.78,1.78,0,0,1,.66-.74,2,2,0,0,1,1-.24h.19l.22,0Z" transform="translate(-1.05 -0.98)"/><path d="M64.91,152.12v.44H61.18a2.21,2.21,0,0,0,.51,1.41,1.61,1.61,0,0,0,1.25.49,3.08,3.08,0,0,0,.91-.13,3.43,3.43,0,0,0,.86-.38v.85a3.91,3.91,0,0,1-.89.31,3.56,3.56,0,0,1-.92.11,2.38,2.38,0,0,1-1.87-.76,3,3,0,0,1-.69-2.06,3.19,3.19,0,0,1,.66-2.13,2.15,2.15,0,0,1,1.76-.79,1.93,1.93,0,0,1,1.57.71A3,3,0,0,1,64.91,152.12Zm-.82-.26a1.81,1.81,0,0,0-.37-1.18,1.18,1.18,0,0,0-.95-.44,1.41,1.41,0,0,0-1.09.43,1.87,1.87,0,0,0-.47,1.19Z" transform="translate(-1.05 -0.98)"/><path d="M70.51,151.78v3.3H69.7v-3.27a1.93,1.93,0,0,0-.28-1.16.92.92,0,0,0-.81-.39,1.27,1.27,0,0,0-1,.46A1.92,1.92,0,0,0,67.2,152v3.09h-.82v-5.47h.82v.85a2.13,2.13,0,0,1,.68-.74,1.69,1.69,0,0,1,.91-.24,1.5,1.5,0,0,1,1.28.58A2.85,2.85,0,0,1,70.51,151.78Z" transform="translate(-1.05 -0.98)"/><path d="M75.66,149.82v.84a3,3,0,0,0-.69-.31,2.38,2.38,0,0,0-.7-.11,1.49,1.49,0,0,0-1.22.55,3,3,0,0,0,0,3.12,1.46,1.46,0,0,0,1.22.55,2.75,2.75,0,0,0,.7-.1,3,3,0,0,0,.69-.32v.83a2.7,2.7,0,0,1-.7.26,3.25,3.25,0,0,1-.77.09,2.21,2.21,0,0,1-1.77-.77,3.14,3.14,0,0,1-.65-2.1,3.11,3.11,0,0,1,.66-2.1,2.26,2.26,0,0,1,1.81-.77,3.55,3.55,0,0,1,.73.08A3.38,3.38,0,0,1,75.66,149.82Z" transform="translate(-1.05 -0.98)"/><path d="M81.57,152.12v.44H77.84a2.21,2.21,0,0,0,.51,1.41,1.61,1.61,0,0,0,1.25.49,3,3,0,0,0,.91-.13,3.66,3.66,0,0,0,.87-.38v.85a4.17,4.17,0,0,1-.9.31,3.56,3.56,0,0,1-.92.11,2.38,2.38,0,0,1-1.87-.76A3,3,0,0,1,77,152.4a3.19,3.19,0,0,1,.66-2.13,2.15,2.15,0,0,1,1.76-.79,1.93,1.93,0,0,1,1.57.71A3,3,0,0,1,81.57,152.12Zm-.82-.26a1.81,1.81,0,0,0-.37-1.18,1.18,1.18,0,0,0-.95-.44,1.41,1.41,0,0,0-1.09.43,1.87,1.87,0,0,0-.47,1.19Z" transform="translate(-1.05 -0.98)"/><path d="M85.65,147.79h.89v7.29h-.89Z" transform="translate(-1.05 -0.98)"/><path d="M91.75,150.66a2.38,2.38,0,0,1,.73-.89,1.72,1.72,0,0,1,1-.29,1.36,1.36,0,0,1,1.19.6,2.92,2.92,0,0,1,.42,1.7v3.3h-.82v-3.27a2.14,2.14,0,0,0-.25-1.17.85.85,0,0,0-.76-.38,1.21,1.21,0,0,0-1,.46,2,2,0,0,0-.37,1.27v3.09h-.81v-3.27a2.21,2.21,0,0,0-.25-1.17.88.88,0,0,0-.78-.38,1.18,1.18,0,0,0-1,.47,2,2,0,0,0-.36,1.26v3.09h-.82v-5.47h.82v.85a1.92,1.92,0,0,1,.66-.74,1.7,1.7,0,0,1,.92-.24,1.4,1.4,0,0,1,.91.3A1.71,1.71,0,0,1,91.75,150.66Z" transform="translate(-1.05 -0.98)"/><path d="M100.2,152v3.12h-.81v-.83a1.81,1.81,0,0,1-.69.73,2,2,0,0,1-1,.24,1.57,1.57,0,0,1-1.2-.47,1.74,1.74,0,0,1-.45-1.26,1.71,1.71,0,0,1,.56-1.39,2.46,2.46,0,0,1,1.65-.47h1.14v-.09a1.27,1.27,0,0,0-.37-1,1.44,1.44,0,0,0-1-.34,3.24,3.24,0,0,0-.82.11,3.29,3.29,0,0,0-.77.34v-.83a5.12,5.12,0,0,1,.86-.29,3.86,3.86,0,0,1,.81-.09,2,2,0,0,1,1.6.61A2.84,2.84,0,0,1,100.2,152Zm-1.61.37a2.58,2.58,0,0,0-1.36.25.93.93,0,0,0-.38.85,1,1,0,0,0,.28.76,1,1,0,0,0,.77.28,1.3,1.3,0,0,0,1.08-.53,2.25,2.25,0,0,0,.41-1.41v-.2Z" transform="translate(-1.05 -0.98)"/><path d="M105.57,154.4a3.25,3.25,0,0,1-.56,2.08,2.09,2.09,0,0,1-1.71.68,4.11,4.11,0,0,1-.8-.07,3.71,3.71,0,0,1-.74-.22V156a3.33,3.33,0,0,0,.7.32,2.83,2.83,0,0,0,.71.1,1.5,1.5,0,0,0,1.19-.46,2.09,2.09,0,0,0,.4-1.4v-.44a1.81,1.81,0,0,1-.64.72,1.75,1.75,0,0,1-.94.24,1.73,1.73,0,0,1-1.46-.77,4,4,0,0,1,0-4.06,1.73,1.73,0,0,1,1.46-.77,1.75,1.75,0,0,1,.94.24,1.81,1.81,0,0,1,.64.72v-.83h.81Zm-.81-2.12a2.7,2.7,0,0,0-.36-1.51,1.18,1.18,0,0,0-1-.54,1.14,1.14,0,0,0-1,.54,3.27,3.27,0,0,0,0,3,1.14,1.14,0,0,0,1,.54,1.18,1.18,0,0,0,1-.54A2.7,2.7,0,0,0,104.76,152.28Z" transform="translate(-1.05 -0.98)"/><path d="M111.1,152.12v.44h-3.72a2.21,2.21,0,0,0,.51,1.41,1.61,1.61,0,0,0,1.25.49,3.13,3.13,0,0,0,.91-.13,3.43,3.43,0,0,0,.86-.38v.85a4.09,4.09,0,0,1-.89.31,3.56,3.56,0,0,1-.92.11,2.38,2.38,0,0,1-1.87-.76,3,3,0,0,1-.69-2.06,3.24,3.24,0,0,1,.65-2.13,2.18,2.18,0,0,1,1.77-.79,1.9,1.9,0,0,1,1.56.71A2.94,2.94,0,0,1,111.1,152.12Zm-.81-.26a1.81,1.81,0,0,0-.37-1.18,1.19,1.19,0,0,0-1-.44,1.4,1.4,0,0,0-1.08.43,1.87,1.87,0,0,0-.47,1.19Z" transform="translate(-1.05 -0.98)"/><path d="M115.24,149.77v.85a2.87,2.87,0,0,0-.71-.29,2.8,2.8,0,0,0-.77-.1,1.57,1.57,0,0,0-.9.21.68.68,0,0,0-.3.61.61.61,0,0,0,.21.49,2.53,2.53,0,0,0,.87.34l.27.07a2.52,2.52,0,0,1,1.23.58,1.43,1.43,0,0,1,.36,1,1.49,1.49,0,0,1-.54,1.21,2.32,2.32,0,0,1-1.49.44,5,5,0,0,1-.83-.08,7.91,7.91,0,0,1-.9-.26V154a4.48,4.48,0,0,0,.88.39,2.9,2.9,0,0,0,.86.13,1.47,1.47,0,0,0,.88-.22.69.69,0,0,0,.31-.61.7.7,0,0,0-.22-.56,2.52,2.52,0,0,0-1-.38l-.27-.07a2.1,2.1,0,0,1-1.09-.54,1.44,1.44,0,0,1-.34-1,1.48,1.48,0,0,1,.5-1.19,2.08,2.08,0,0,1,1.39-.42,4.57,4.57,0,0,1,.85.07A3.27,3.27,0,0,1,115.24,149.77Z" transform="translate(-1.05 -0.98)"/><line class="cls-3" x1="33.41" y1="127.76" x2="29.91" y2="127.76"/><path d="M24.65,125.84a1.49,1.49,0,0,1,1.35.77,4.45,4.45,0,0,1,.47,2.26,4.37,4.37,0,0,1-.47,2.24,1.48,1.48,0,0,1-1.35.78,1.47,1.47,0,0,1-1.34-.78,4.37,4.37,0,0,1-.47-2.24,4.45,4.45,0,0,1,.47-2.26A1.48,1.48,0,0,1,24.65,125.84Zm0,.62a.88.88,0,0,0-.82.6,4.41,4.41,0,0,0-.28,1.81,4.33,4.33,0,0,0,.28,1.79.87.87,0,0,0,1.65,0,4.54,4.54,0,0,0,.27-1.79,4.61,4.61,0,0,0-.27-1.81A.88.88,0,0,0,24.65,126.46Z" transform="translate(-1.05 -0.98)"/><line class="cls-3" x1="33.41" y1="103.76" x2="29.91" y2="103.76"/><path d="M17,101.85a1.47,1.47,0,0,1,1.35.77,5.73,5.73,0,0,1,0,4.5,1.56,1.56,0,0,1-2.7,0,5.73,5.73,0,0,1,0-4.5A1.47,1.47,0,0,1,17,101.85Zm0,.62a.88.88,0,0,0-.82.6,5.93,5.93,0,0,0,0,3.6.88.88,0,0,0,.82.6.89.89,0,0,0,.83-.6,6.14,6.14,0,0,0,0-3.6A.89.89,0,0,0,17,102.47Z" transform="translate(-1.05 -0.98)"/><path d="M20.07,106.79h.74v1h-.74Z" transform="translate(-1.05 -0.98)"/><path d="M22.6,107.12h2.48v.66H21.75v-.66c.26-.31.63-.73,1.1-1.25s.76-.86.88-1a3.74,3.74,0,0,0,.47-.72,1.41,1.41,0,0,0,.14-.58,1,1,0,0,0-.3-.76,1,1,0,0,0-.76-.29,2.1,2.1,0,0,0-.71.13,3.59,3.59,0,0,0-.79.39v-.8a6.12,6.12,0,0,1,.8-.29,3,3,0,0,1,.69-.09,1.85,1.85,0,0,1,1.3.45,1.57,1.57,0,0,1,.48,1.21,1.91,1.91,0,0,1-.12.68,3.3,3.3,0,0,1-.44.76l-.56.66Z" transform="translate(-1.05 -0.98)"/><line class="cls-3" x1="33.41" y1="79.77" x2="29.91" y2="79.77"/><path d="M17,77.85a1.48,1.48,0,0,1,1.35.78,5.73,5.73,0,0,1,0,4.5,1.57,1.57,0,0,1-2.7,0,5.73,5.73,0,0,1,0-4.5A1.48,1.48,0,0,1,17,77.85Zm0,.63a.88.88,0,0,0-.82.6,5.93,5.93,0,0,0,0,3.6.88.88,0,0,0,.82.6.89.89,0,0,0,.83-.6,6.14,6.14,0,0,0,0-3.6A.89.89,0,0,0,17,78.48Z" transform="translate(-1.05 -0.98)"/><path d="M20.07,82.8h.74v1h-.74Z" transform="translate(-1.05 -0.98)"/><path d="M23.75,78h.9v3.8h.75v.66h-.75v1.37h-.71V82.42H21.57v-.77Zm.19.69-1.79,3.11h1.79Z" transform="translate(-1.05 -0.98)"/><line class="cls-3" x1="33.41" y1="55.78" x2="29.91" y2="55.78"/><path d="M17,53.86a1.48,1.48,0,0,1,1.35.78,5.73,5.73,0,0,1,0,4.5,1.57,1.57,0,0,1-2.7,0,5.73,5.73,0,0,1,0-4.5A1.48,1.48,0,0,1,17,53.86Zm0,.63a.88.88,0,0,0-.82.6,5.93,5.93,0,0,0,0,3.6.88.88,0,0,0,.82.6.89.89,0,0,0,.83-.6,6.13,6.13,0,0,0,0-3.6A.89.89,0,0,0,17,54.49Z" transform="translate(-1.05 -0.98)"/><path d="M20.07,58.81h.74v1h-.74Z" transform="translate(-1.05 -0.98)"/><path d="M25,54.1v.72a2.2,2.2,0,0,0-.53-.22,2.11,2.11,0,0,0-.54-.07,1.24,1.24,0,0,0-1.08.52,3,3,0,0,0-.42,1.6,1.44,1.44,0,0,1,.52-.52,1.28,1.28,0,0,1,.69-.19,1.56,1.56,0,0,1,1.25.54,2.12,2.12,0,0,1,.46,1.45,2.09,2.09,0,0,1-.48,1.44,1.62,1.62,0,0,1-1.28.54,1.56,1.56,0,0,1-1.39-.77,4.33,4.33,0,0,1-.48-2.25,3.76,3.76,0,0,1,.59-2.21,1.88,1.88,0,0,1,1.59-.82,2.48,2.48,0,0,1,.54.06A3.3,3.3,0,0,1,25,54.1Zm-1.41,2.47a.9.9,0,0,0-.75.36,1.58,1.58,0,0,0-.28,1,1.55,1.55,0,0,0,.28,1,1,1,0,0,0,1.51,0,1.55,1.55,0,0,0,.28-1,1.58,1.58,0,0,0-.28-1A.9.9,0,0,0,23.59,56.57Z" transform="translate(-1.05 -0.98)"/><line class="cls-3" x1="33.41" y1="31.79" x2="29.91" y2="31.79"/><path d="M17,29.87a1.48,1.48,0,0,1,1.35.78,4.4,4.4,0,0,1,.46,2.25,4.45,4.45,0,0,1-.46,2.25,1.57,1.57,0,0,1-2.7,0,4.45,4.45,0,0,1-.46-2.25,4.4,4.4,0,0,1,.46-2.25A1.48,1.48,0,0,1,17,29.87Zm0,.63a.87.87,0,0,0-.82.59,4.44,4.44,0,0,0-.28,1.81,4.39,4.39,0,0,0,.28,1.8.88.88,0,0,0,.82.6.89.89,0,0,0,.83-.6,4.59,4.59,0,0,0,.27-1.8,4.65,4.65,0,0,0-.27-1.81A.88.88,0,0,0,17,30.5Z" transform="translate(-1.05 -0.98)"/><path d="M20.07,34.82h.74v1h-.74Z" transform="translate(-1.05 -0.98)"/><path d="M22.8,32.7a1.23,1.23,0,0,1-.71-.47,1.39,1.39,0,0,1-.26-.85,1.41,1.41,0,0,1,.45-1.1,2.05,2.05,0,0,1,2.46,0,1.4,1.4,0,0,1,.44,1.1,1.38,1.38,0,0,1-.25.85,1.23,1.23,0,0,1-.71.47,1.39,1.39,0,0,1,.8.52,1.55,1.55,0,0,1,.29,1,1.74,1.74,0,0,1-.47,1.3,1.83,1.83,0,0,1-1.33.45,1.87,1.87,0,0,1-1.34-.45,1.73,1.73,0,0,1-.46-1.3,1.49,1.49,0,0,1,.29-1A1.39,1.39,0,0,1,22.8,32.7Zm.71.34a1.06,1.06,0,0,0-.8.3,1.16,1.16,0,0,0-.29.83,1.18,1.18,0,0,0,.29.83,1.06,1.06,0,0,0,.8.3,1.08,1.08,0,0,0,.8-.31,1.14,1.14,0,0,0,.29-.82,1.16,1.16,0,0,0-.29-.83A1.07,1.07,0,0,0,23.51,33Zm-1-1.58a.94.94,0,0,0,.25.7,1.11,1.11,0,0,0,1.43,0,1.09,1.09,0,0,0,0-1.41,1.15,1.15,0,0,0-1.43,0A1,1,0,0,0,22.54,31.46Z" transform="translate(-1.05 -0.98)"/><line class="cls-3" x1="33.41" y1="7.8" x2="29.91" y2="7.8"/><path d="M23.26,11.15h1.16V6.7L23.15,7V6.26L24.41,6h.71v5.17h1.16v.67h-3Z" transform="translate(-1.05 -0.98)"/><path d="M1.36,109.17v-2a2.29,2.29,0,0,1,.55-1.67,2.16,2.16,0,0,1,1.62-.56,2.15,2.15,0,0,1,1.63.56,2.29,2.29,0,0,1,.56,1.67v1.11H8.65v.89Zm.81-.89H4.91v-1.11a1.24,1.24,0,0,0-.36-1,1.41,1.41,0,0,0-1-.34,1.4,1.4,0,0,0-1,.34,1.27,1.27,0,0,0-.35,1Z" transform="translate(-1.05 -0.98)"/><path d="M4,100.93a1,1,0,0,0-.13.3,1.29,1.29,0,0,0,0,.35,1.24,1.24,0,0,0,.49,1.06,2.4,2.4,0,0,0,1.42.36H8.65v.82H3.18V103H4a1.72,1.72,0,0,1-.74-.66,2,2,0,0,1-.25-1,1.37,1.37,0,0,1,0-.19l0-.22Z" transform="translate(-1.05 -0.98)"/><path d="M3,98.34a2,2,0,0,1,.77-1.66,3.31,3.31,0,0,1,2.11-.6,3.32,3.32,0,0,1,2.1.6A2.17,2.17,0,0,1,8,100a3.32,3.32,0,0,1-2.1.59A3.31,3.31,0,0,1,3.81,100,2,2,0,0,1,3,98.34Zm.77,0a1.2,1.2,0,0,0,.56,1,2.78,2.78,0,0,0,1.55.38,2.76,2.76,0,0,0,1.54-.38,1.22,1.22,0,0,0,0-2.06,2.76,2.76,0,0,0-1.54-.37,2.74,2.74,0,0,0-1.54.37A1.18,1.18,0,0,0,3.81,98.34Z" transform="translate(-1.05 -0.98)"/><path d="M7.83,93.92h2.9v.82H3.18v-.82H4a1.78,1.78,0,0,1-.73-.64A1.74,1.74,0,0,1,3,92.35a1.71,1.71,0,0,1,.8-1.46,3.53,3.53,0,0,1,2.08-.56A3.55,3.55,0,0,1,8,90.89a1.8,1.8,0,0,1,.55,2.39A1.81,1.81,0,0,1,7.83,93.92ZM5.92,91.17a2.88,2.88,0,0,0-1.56.37,1.15,1.15,0,0,0-.56,1,1.16,1.16,0,0,0,.56,1,2.88,2.88,0,0,0,1.56.36,2.87,2.87,0,0,0,1.55-.36,1.18,1.18,0,0,0,0-2A2.86,2.86,0,0,0,5.92,91.17Z" transform="translate(-1.05 -0.98)"/><path d="M3,87a2,2,0,0,1,.77-1.66,3.31,3.31,0,0,1,2.11-.6,3.32,3.32,0,0,1,2.1.6,2.17,2.17,0,0,1,0,3.32,3.32,3.32,0,0,1-2.1.6,3.31,3.31,0,0,1-2.11-.6A2,2,0,0,1,3,87Zm.77,0a1.18,1.18,0,0,0,.56,1,2.78,2.78,0,0,0,1.55.38A2.76,2.76,0,0,0,7.46,88a1.23,1.23,0,0,0,0-2.06,2.76,2.76,0,0,0-1.54-.37A2.74,2.74,0,0,0,4.38,86,1.18,1.18,0,0,0,3.81,87Z" transform="translate(-1.05 -0.98)"/><path d="M4,80.49a.81.81,0,0,0-.13.3,1.29,1.29,0,0,0,0,.35,1.24,1.24,0,0,0,.49,1.06,2.4,2.4,0,0,0,1.42.36H8.65v.82H3.18v-.82H4a1.72,1.72,0,0,1-.74-.66,2,2,0,0,1-.25-1,1.37,1.37,0,0,1,0-.19,1.92,1.92,0,0,1,0-.22Z" transform="translate(-1.05 -0.98)"/><path d="M1.62,79H3.18V77.33h.7V79h3a1.45,1.45,0,0,0,.86-.16.86.86,0,0,0,.19-.67v-.83h.76v.83a1.71,1.71,0,0,1-.39,1.29,2.11,2.11,0,0,1-1.42.36h-3v.59h-.7v-.59H1.62Z" transform="translate(-1.05 -0.98)"/><path d="M1.05,76.29v-.8H2.19v.8Zm2.13,0v-.8H8.65v.8Z" transform="translate(-1.05 -0.98)"/><path d="M3,71.86a2,2,0,0,1,.77-1.66,3.31,3.31,0,0,1,2.11-.6,3.32,3.32,0,0,1,2.1.6,2.17,2.17,0,0,1,0,3.32,3.32,3.32,0,0,1-2.1.59,3.31,3.31,0,0,1-2.11-.59A2,2,0,0,1,3,71.86Zm.77,0a1.18,1.18,0,0,0,.56,1,2.78,2.78,0,0,0,1.55.37,2.76,2.76,0,0,0,1.54-.37,1.23,1.23,0,0,0,0-2.06,2.76,2.76,0,0,0-1.54-.37,2.74,2.74,0,0,0-1.54.37A1.18,1.18,0,0,0,3.81,71.86Z" transform="translate(-1.05 -0.98)"/><path d="M5.34,64.13H8.65v.81H5.37a2,2,0,0,0-1.16.28.91.91,0,0,0-.38.81,1.24,1.24,0,0,0,.46,1,1.9,1.9,0,0,0,1.26.38h3.1v.82H3.18v-.82H4a2,2,0,0,1-.74-.68A1.7,1.7,0,0,1,3,65.85a1.5,1.5,0,0,1,.59-1.28A2.84,2.84,0,0,1,5.34,64.13Z" transform="translate(-1.05 -0.98)"/><path d="M1.92,55H3a3.37,3.37,0,0,0-.7,1A2.65,2.65,0,0,0,2,57.07a2,2,0,0,0,.77,1.72,3.51,3.51,0,0,0,2.21.6,3.49,3.49,0,0,0,2.2-.6A2,2,0,0,0,8,57.07,2.65,2.65,0,0,0,7.75,56a3.37,3.37,0,0,0-.7-1h1a3.34,3.34,0,0,1,.53,1,3.38,3.38,0,0,1,.18,1.1,2.9,2.9,0,0,1-1,2.35A4.12,4.12,0,0,1,5,60.32a4.15,4.15,0,0,1-2.77-.85,2.9,2.9,0,0,1-1-2.35A3.4,3.4,0,0,1,1.4,56,3.26,3.26,0,0,1,1.92,55Z" transform="translate(-1.05 -0.98)"/><path d="M3,51.8a2,2,0,0,1,.77-1.66,3.31,3.31,0,0,1,2.11-.6,3.32,3.32,0,0,1,2.1.6,2.17,2.17,0,0,1,0,3.32,3.38,3.38,0,0,1-2.1.59,3.37,3.37,0,0,1-2.11-.59A2,2,0,0,1,3,51.8Zm.77,0a1.18,1.18,0,0,0,.56,1,2.78,2.78,0,0,0,1.55.37,2.74,2.74,0,0,0,1.54-.37,1.22,1.22,0,0,0,0-2.06,2.76,2.76,0,0,0-1.54-.37,2.74,2.74,0,0,0-1.54.37A1.18,1.18,0,0,0,3.81,51.8Z" transform="translate(-1.05 -0.98)"/><path d="M4,45.3a1,1,0,0,0-.13.3,1.29,1.29,0,0,0,0,.35A1.24,1.24,0,0,0,4.34,47a2.42,2.42,0,0,0,1.43.36H8.65v.82H3.18v-.82H4a1.72,1.72,0,0,1-.74-.66,2,2,0,0,1-.24-1,1.28,1.28,0,0,1,0-.19l0-.22Z" transform="translate(-1.05 -0.98)"/><path d="M4,41.75a1.3,1.3,0,0,0-.13.3,1.34,1.34,0,0,0,0,.35,1.24,1.24,0,0,0,.49,1.06,2.41,2.41,0,0,0,1.43.37H8.65v.81H3.18v-.81H4a1.74,1.74,0,0,1-.74-.67,1.91,1.91,0,0,1-.24-1,1.28,1.28,0,0,1,0-.19c0-.06,0-.14,0-.22Z" transform="translate(-1.05 -0.98)"/><path d="M5.69,36.86h.44v3.72a2.17,2.17,0,0,0,1.41-.5A1.64,1.64,0,0,0,8,38.83a3.39,3.39,0,0,0-.13-.91,4.11,4.11,0,0,0-.38-.87h.85a4.79,4.79,0,0,1,.31.9,4.06,4.06,0,0,1,.11.92A2.42,2.42,0,0,1,8,40.74,3,3,0,0,1,6,41.42a3.23,3.23,0,0,1-2.13-.65A2.17,2.17,0,0,1,3,39a1.91,1.91,0,0,1,.72-1.57A3,3,0,0,1,5.69,36.86Zm-.27.81a1.79,1.79,0,0,0-1.17.38,1.15,1.15,0,0,0-.44,1,1.44,1.44,0,0,0,.42,1.09,1.88,1.88,0,0,0,1.2.47Z" transform="translate(-1.05 -0.98)"/><path d="M3.39,31.82h.84a3,3,0,0,0-.32.69,2.35,2.35,0,0,0-.1.69,1.47,1.47,0,0,0,.55,1.23,2.47,2.47,0,0,0,1.56.43,2.46,2.46,0,0,0,1.55-.43A1.48,1.48,0,0,0,8,33.2a2.37,2.37,0,0,0-.11-.69,3,3,0,0,0-.31-.69h.83a3.7,3.7,0,0,1,.26.7,3.25,3.25,0,0,1,.09.77A2.2,2.2,0,0,1,8,35.06a3.13,3.13,0,0,1-2.09.65,3.12,3.12,0,0,1-2.11-.66A2.26,2.26,0,0,1,3,33.24a3,3,0,0,1,.09-.73A2.88,2.88,0,0,1,3.39,31.82Z" transform="translate(-1.05 -0.98)"/><path d="M1.62,29.33H3.18V27.67h.7v1.66h3a1.45,1.45,0,0,0,.86-.16.86.86,0,0,0,.19-.67v-.83h.76v.83a1.71,1.71,0,0,1-.39,1.29,2.11,2.11,0,0,1-1.42.36h-3v.59h-.7v-.59H1.62Z" transform="translate(-1.05 -0.98)"/><line class="cls-4" x1="54.93" y1="34.24" x2="54.93" y2="24.54"/><line class="cls-4" x1="94.79" y1="19.16" x2="94.79" y2="15.1"/><line class="cls-5" x1="33.41" y1="67.78" x2="117.31" y2="67.78"/><polyline class="cls-6" points="54.93 11.55 54.93 8 94.79 8 94.79 11.55"/><line class="cls-7" x1="33.41" y1="127.76" x2="33.41" y2="7.8"/><line class="cls-8" x1="33.41" y1="127.76" x2="113.69" y2="127.76"/><path d="M56.71,6.26V8.58h-.65v-6h.65v.67a1.44,1.44,0,0,1,.52-.59A1.42,1.42,0,0,1,58,2.44a1.38,1.38,0,0,1,1.17.63,2.79,2.79,0,0,1,.44,1.66,2.84,2.84,0,0,1-.44,1.67A1.38,1.38,0,0,1,58,7a1.34,1.34,0,0,1-.74-.19A1.48,1.48,0,0,1,56.71,6.26Zm2.2-1.53a2.3,2.3,0,0,0-.29-1.24A.92.92,0,0,0,57.81,3a.9.9,0,0,0-.8.45,2.21,2.21,0,0,0-.3,1.24A2.24,2.24,0,0,0,57,6a.9.9,0,0,0,.8.45A.92.92,0,0,0,58.62,6,2.33,2.33,0,0,0,58.91,4.73Z" transform="translate(-1.05 -0.98)"/><path d="M64.39,3.28H68.9v.66H64.39Zm0,1.6H68.9v.66H64.39Z" transform="translate(-1.05 -0.98)"/><path d="M75.68,1A1.49,1.49,0,0,1,77,1.75,4.46,4.46,0,0,1,77.49,4,4.38,4.38,0,0,1,77,6.25a1.56,1.56,0,0,1-2.7,0A4.38,4.38,0,0,1,73.87,4a4.46,4.46,0,0,1,.46-2.26A1.49,1.49,0,0,1,75.68,1Zm0,.62a.88.88,0,0,0-.82.6A4.41,4.41,0,0,0,74.58,4a4.33,4.33,0,0,0,.28,1.79.88.88,0,0,0,.82.6.89.89,0,0,0,.83-.6A4.54,4.54,0,0,0,76.78,4a4.61,4.61,0,0,0-.27-1.81A.89.89,0,0,0,75.68,1.6Z" transform="translate(-1.05 -0.98)"/><path d="M78.74,5.92h.74v1h-.74Z" transform="translate(-1.05 -0.98)"/><path d="M82.18,1a1.49,1.49,0,0,1,1.35.77A4.46,4.46,0,0,1,84,4a4.38,4.38,0,0,1-.46,2.24,1.56,1.56,0,0,1-2.7,0A4.38,4.38,0,0,1,80.37,4a4.46,4.46,0,0,1,.46-2.26A1.49,1.49,0,0,1,82.18,1Zm0,.62a.89.89,0,0,0-.83.6A4.61,4.61,0,0,0,81.08,4a4.54,4.54,0,0,0,.27,1.79.89.89,0,0,0,.83.6A.88.88,0,0,0,83,5.8,4.33,4.33,0,0,0,83.28,4,4.41,4.41,0,0,0,83,2.2.88.88,0,0,0,82.18,1.6Z" transform="translate(-1.05 -0.98)"/><path d="M86.76,1a1.49,1.49,0,0,1,1.34.77A4.45,4.45,0,0,1,88.57,4a4.37,4.37,0,0,1-.47,2.24,1.55,1.55,0,0,1-2.69,0A4.37,4.37,0,0,1,84.94,4a4.45,4.45,0,0,1,.47-2.26A1.49,1.49,0,0,1,86.76,1Zm0,.62a.89.89,0,0,0-.83.6A4.58,4.58,0,0,0,85.65,4a4.51,4.51,0,0,0,.28,1.79.89.89,0,0,0,.83.6.88.88,0,0,0,.82-.6A4.33,4.33,0,0,0,87.86,4a4.41,4.41,0,0,0-.28-1.81A.88.88,0,0,0,86.76,1.6Z" transform="translate(-1.05 -0.98)"/><path d="M89.82,1.08h2.79v.67H90.47V3.18a1.81,1.81,0,0,1,.31-.09,1.63,1.63,0,0,1,.31,0,1.82,1.82,0,0,1,1.39.54A2,2,0,0,1,93,5a2,2,0,0,1-.53,1.47A2,2,0,0,1,91,7,3.88,3.88,0,0,1,90.31,7a5,5,0,0,1-.71-.19V6A2.68,2.68,0,0,0,91,6.37,1.24,1.24,0,0,0,92.29,5,1.24,1.24,0,0,0,91,3.72a2.78,2.78,0,0,0-.57.07,3,3,0,0,0-.58.22Z" transform="translate(-1.05 -0.98)"/><path d="M116.27,62.41v.73a2.17,2.17,0,0,0-.67-.49,1.79,1.79,0,0,0-.76-.16,1.43,1.43,0,0,0-1.2.54,2.44,2.44,0,0,0-.42,1.54,2.49,2.49,0,0,0,.42,1.55,1.45,1.45,0,0,0,1.2.53,1.79,1.79,0,0,0,.76-.16,2.17,2.17,0,0,0,.67-.49v.73a2.53,2.53,0,0,1-.69.36,2.22,2.22,0,0,1-.77.13,2,2,0,0,1-1.64-.71,3.44,3.44,0,0,1,0-3.88,2,2,0,0,1,1.64-.71,2.43,2.43,0,0,1,.77.12A2.3,2.3,0,0,1,116.27,62.41Z" transform="translate(-1.05 -0.98)"/><path d="M120.07,64.81v2.31h-.57V64.83a1.42,1.42,0,0,0-.19-.82.65.65,0,0,0-.57-.26.85.85,0,0,0-.72.32,1.34,1.34,0,0,0-.27.88v2.17h-.57V61.8h.57v2.08a1.48,1.48,0,0,1,.48-.51,1.11,1.11,0,0,1,.64-.17,1,1,0,0,1,.89.41A1.93,1.93,0,0,1,120.07,64.81Z" transform="translate(-1.05 -0.98)"/><path d="M123.89,64.93v2.19h-.57v-.58a1.19,1.19,0,0,1-.48.51,1.41,1.41,0,0,1-.71.17,1.11,1.11,0,0,1-.84-.33A1.28,1.28,0,0,1,121,66a1.19,1.19,0,0,1,.39-1,1.76,1.76,0,0,1,1.16-.33h.79v-.06a.87.87,0,0,0-.25-.67,1,1,0,0,0-.72-.24,2.25,2.25,0,0,0-.58.08,1.86,1.86,0,0,0-.54.24v-.59a6,6,0,0,1,.6-.2,2.91,2.91,0,0,1,.57-.06,1.38,1.38,0,0,1,1.12.43A1.94,1.94,0,0,1,123.89,64.93Zm-1.13.26a1.8,1.8,0,0,0-1,.18.63.63,0,0,0-.26.59.7.7,0,0,0,.19.53.77.77,0,0,0,.54.2.9.9,0,0,0,.76-.37,1.59,1.59,0,0,0,.28-1v-.14Z" transform="translate(-1.05 -0.98)"/><path d="M127.92,64.81v2.31h-.57V64.83a1.42,1.42,0,0,0-.19-.82.65.65,0,0,0-.57-.26.86.86,0,0,0-.72.32,1.34,1.34,0,0,0-.27.88v2.17H125V63.29h.57v.59a1.48,1.48,0,0,1,.48-.51,1.14,1.14,0,0,1,.64-.17,1,1,0,0,1,.89.41A1.93,1.93,0,0,1,127.92,64.81Z" transform="translate(-1.05 -0.98)"/><path d="M131.53,63.44V64a2.56,2.56,0,0,0-.48-.22,2.07,2.07,0,0,0-.49-.07,1,1,0,0,0-.86.39,1.74,1.74,0,0,0-.3,1.09,1.76,1.76,0,0,0,.3,1.09,1,1,0,0,0,.86.38,1.66,1.66,0,0,0,.49-.07,2.05,2.05,0,0,0,.48-.22V67a2.92,2.92,0,0,1-.49.19,2.35,2.35,0,0,1-.54.06,1.53,1.53,0,0,1-1.24-.55,2.22,2.22,0,0,1-.46-1.46,2.19,2.19,0,0,1,.47-1.48,1.59,1.59,0,0,1,1.26-.53,2.1,2.1,0,0,1,.51.06A2.22,2.22,0,0,1,131.53,63.44Z" transform="translate(-1.05 -0.98)"/><path d="M135.46,65.05v.3h-2.61a1.54,1.54,0,0,0,.36,1,1.12,1.12,0,0,0,.87.34,2.3,2.3,0,0,0,.64-.09,2.23,2.23,0,0,0,.6-.26v.59a2.87,2.87,0,0,1-.62.22,2.82,2.82,0,0,1-.65.08,1.63,1.63,0,0,1-1.3-.54,2,2,0,0,1-.49-1.44,2.31,2.31,0,0,1,.46-1.49A1.52,1.52,0,0,1,134,63.2a1.31,1.31,0,0,1,1.1.5A2.07,2.07,0,0,1,135.46,65.05Zm-.57-.19a1.24,1.24,0,0,0-.26-.82.81.81,0,0,0-.67-.31,1,1,0,0,0-.76.3,1.34,1.34,0,0,0-.33.84Z" transform="translate(-1.05 -0.98)"/></svg>