<svg id="Layer_1" data-name="Layer 1" xmlns="http://www.w3.org/2000/svg" xmlns:xlink="http://www.w3.org/1999/xlink" viewBox="0 0 516.31 172.6"><defs><style>.cls-1,.cls-10,.cls-4,.cls-5,.cls-6{fill:none;}.cls-2{clip-path:url(#clip-path);}.cls-3{fill:#47789e;}.cls-10,.cls-4,.cls-5,.cls-6{stroke:#000;}.cls-10,.cls-4,.cls-5{stroke-linejoin:round;}.cls-4,.cls-6{stroke-width:0.8px;}.cls-10,.cls-6{stroke-linecap:square;}.cls-6{stroke-miterlimit:10;}.cls-7{clip-path:url(#clip-path-6);}.cls-8{fill:#ffac74;}.cls-9{clip-path:url(#clip-path-11);}.cls-11{clip-path:url(#clip-path-15);}</style><clipPath id="clip-path" transform="translate(-1.05 -9.93)"><rect class="cls-1" x="238.36" width="129.91" height="97.63"/></clipPath><clipPath id="clip-path-6" transform="translate(-1.05 -9.93)"><rect class="cls-1" x="387.05" width="129.91" height="97.63"/></clipPath><clipPath id="clip-path-11" transform="translate(-1.05 -9.93)"><rect class="cls-1" x="44.68" width="56.09" height="97.63"/></clipPath><clipPath id="clip-path-15" transform="translate(-1.05 -9.93)"><rect class="cls-1" x="121.12" width="56.09" height="97.63"/></clipPath></defs><path d="M82.33,153.71h4.15v.83H83.22v2.16h3.12v.83H83.22v2.64h3.34V161H82.33Z" transform="translate(-1.05 -9.93)"/><path d="M91.58,155.53,89.8,158.2l1.87,2.8h-1l-1.43-2.15L87.85,161H86.9l1.91-2.86-1.75-2.61h1l1.3,1.95,1.3-1.95Z" transform="translate(-1.05 -9.93)"/><path d="M93.1,160.18v2.9h-.81v-7.55h.81v.83a1.89,1.89,0,0,1,.64-.72,1.8,1.8,0,0,1,2.39.55,4.14,4.14,0,0,1,0,4.16,1.7,1.7,0,0,1-1.46.79,1.74,1.74,0,0,1-.93-.23A1.85,1.85,0,0,1,93.1,160.18Zm2.75-1.91a2.84,2.84,0,0,0-.36-1.55,1.18,1.18,0,0,0-2,0,2.76,2.76,0,0,0-.37,1.55,2.81,2.81,0,0,0,.37,1.56,1.15,1.15,0,0,0,1,.56,1.16,1.16,0,0,0,1-.56A2.91,2.91,0,0,0,95.85,158.27Z" transform="translate(-1.05 -9.93)"/><path d="M101.75,158v.44H98a2.26,2.26,0,0,0,.51,1.42,1.63,1.63,0,0,0,1.25.48,3.5,3.5,0,0,0,.91-.12,3.87,3.87,0,0,0,.86-.39v.85a4.12,4.12,0,0,1-.89.32,4.05,4.05,0,0,1-.92.1,2.38,2.38,0,0,1-1.87-.76,3,3,0,0,1-.69-2.06,3.28,3.28,0,0,1,.65-2.13,2.17,2.17,0,0,1,1.76-.79,1.91,1.91,0,0,1,1.57.71A3,3,0,0,1,101.75,158Zm-.81-.26a1.83,1.83,0,0,0-.37-1.18,1.19,1.19,0,0,0-1-.44,1.44,1.44,0,0,0-1.08.43,1.87,1.87,0,0,0-.47,1.19Z" transform="translate(-1.05 -9.93)"/><path d="M105.44,156.37a1.51,1.51,0,0,0-.29-.13,2,2,0,0,0-.36,0,1.22,1.22,0,0,0-1.05.5,2.31,2.31,0,0,0-.37,1.42V161h-.81v-5.47h.81v.85a1.79,1.79,0,0,1,.67-.74,1.91,1.91,0,0,1,1-.24h.18l.23,0Z" transform="translate(-1.05 -9.93)"/><path d="M106.6,154v1.55h1.66v.7H106.6v3a1.47,1.47,0,0,0,.16.86.86.86,0,0,0,.67.19h.83V161h-.83a1.71,1.71,0,0,1-1.29-.39,2.08,2.08,0,0,1-.36-1.41v-3h-.59v-.7h.59V154Z" transform="translate(-1.05 -9.93)"/><path d="M111.23,153.71h.89v6.46h3.2V161h-4.09Z" transform="translate(-1.05 -9.93)"/><path d="M119.93,158v.44h-3.72a2.2,2.2,0,0,0,.5,1.42,1.64,1.64,0,0,0,1.26.48,3.37,3.37,0,0,0,.9-.12,4.16,4.16,0,0,0,.87-.39v.85a4.32,4.32,0,0,1-.89.32,4.2,4.2,0,0,1-.93.1,2.38,2.38,0,0,1-1.87-.76,3,3,0,0,1-.68-2.06,3.23,3.23,0,0,1,.65-2.13,2.15,2.15,0,0,1,1.76-.79,1.93,1.93,0,0,1,1.57.71A3,3,0,0,1,119.93,158Zm-.81-.26a1.89,1.89,0,0,0-.37-1.18,1.19,1.19,0,0,0-1-.44,1.48,1.48,0,0,0-1.09.43,1.87,1.87,0,0,0-.46,1.19Z" transform="translate(-1.05 -9.93)"/><path d="M120.19,155.53H121l1.54,4.59,1.54-4.59H125L123.13,161H122Z" transform="translate(-1.05 -9.93)"/><path d="M129.81,158v.44h-3.72a2.2,2.2,0,0,0,.5,1.42,1.63,1.63,0,0,0,1.25.48,3.39,3.39,0,0,0,.91-.12,4.16,4.16,0,0,0,.87-.39v.85a4.32,4.32,0,0,1-.89.32,4.2,4.2,0,0,1-.93.1,2.38,2.38,0,0,1-1.87-.76,3,3,0,0,1-.68-2.06,3.23,3.23,0,0,1,.65-2.13,2.15,2.15,0,0,1,1.76-.79,1.93,1.93,0,0,1,1.57.71A3,3,0,0,1,129.81,158Zm-.81-.26a1.89,1.89,0,0,0-.37-1.18,1.19,1.19,0,0,0-1-.44,1.46,1.46,0,0,0-1.09.43,1.87,1.87,0,0,0-.46,1.19Z" transform="translate(-1.05 -9.93)"/><path d="M130.65,153.4h.8V161h-.8Z" transform="translate(-1.05 -9.93)"/><path d="M289.79,138.05v.87a4.58,4.58,0,0,0-.85-.36,2.74,2.74,0,0,0-.78-.12,1.58,1.58,0,0,0-1,.28,1,1,0,0,0-.35.8.9.9,0,0,0,.23.66,1.93,1.93,0,0,0,.9.36l.48.11a2.42,2.42,0,0,1,1.32.66,1.88,1.88,0,0,1,.42,1.28,1.81,1.81,0,0,1-.57,1.45,2.58,2.58,0,0,1-1.69.49,4.08,4.08,0,0,1-.89-.11,5.81,5.81,0,0,1-1-.31v-.91a4.29,4.29,0,0,0,1,.45,2.74,2.74,0,0,0,.92.16,1.65,1.65,0,0,0,1.06-.3,1.18,1.18,0,0,0,.1-1.61,1.76,1.76,0,0,0-.88-.41l-.48-.1a2.51,2.51,0,0,1-1.29-.62,1.64,1.64,0,0,1-.4-1.18,1.76,1.76,0,0,1,.55-1.37,2.19,2.19,0,0,1,1.52-.5,5,5,0,0,1,.85.08A6,6,0,0,1,289.79,138.05Z" transform="translate(-1.05 -9.93)"/><path d="M292.77,144.86a3.08,3.08,0,0,1-.6,1.14,1.13,1.13,0,0,1-.79.27h-.58v-.67h.43a.7.7,0,0,0,.47-.16,2.13,2.13,0,0,0,.36-.75l.14-.37-1.8-4.84h.77l1.39,3.85,1.38-3.85h.77Z" transform="translate(-1.05 -9.93)"/><path d="M299.4,141.43v3h-.73v-2.94a1.77,1.77,0,0,0-.25-1.05.84.84,0,0,0-.73-.35,1.14,1.14,0,0,0-.93.42,1.74,1.74,0,0,0-.34,1.14v2.78h-.73v-4.92h.73v.76a2,2,0,0,1,.61-.66,1.5,1.5,0,0,1,.82-.22,1.37,1.37,0,0,1,1.16.52A2.61,2.61,0,0,1,299.4,141.43Z" transform="translate(-1.05 -9.93)"/><path d="M301.57,138.08v1.4h1.5v.63h-1.5v2.67a1.28,1.28,0,0,0,.15.77.77.77,0,0,0,.6.17h.75v.68h-.75a1.54,1.54,0,0,1-1.16-.35,1.87,1.87,0,0,1-.32-1.27v-2.67h-.54v-.63h.54v-1.4Z" transform="translate(-1.05 -9.93)"/><path d="M307.71,141.43v3H307v-2.94a1.85,1.85,0,0,0-.25-1.05.84.84,0,0,0-.73-.35,1.11,1.11,0,0,0-.93.42,1.74,1.74,0,0,0-.34,1.14v2.78H304v-6.84h.74v2.68a1.86,1.86,0,0,1,.61-.66,1.48,1.48,0,0,1,.82-.22,1.33,1.33,0,0,1,1.15.52A2.6,2.6,0,0,1,307.71,141.43Z" transform="translate(-1.05 -9.93)"/><path d="M312.94,141.74v.39h-3.35a2,2,0,0,0,.46,1.27,1.44,1.44,0,0,0,1.13.44,3.1,3.1,0,0,0,.81-.11,3.77,3.77,0,0,0,.78-.34v.76a4,4,0,0,1-.8.28,3.31,3.31,0,0,1-.83.1,2.14,2.14,0,0,1-1.68-.69,2.61,2.61,0,0,1-.62-1.85,2.86,2.86,0,0,1,.59-1.92,1.94,1.94,0,0,1,1.58-.71,1.71,1.71,0,0,1,1.41.64A2.66,2.66,0,0,1,312.94,141.74Zm-.73-.24a1.6,1.6,0,0,0-.33-1.06,1.06,1.06,0,0,0-.86-.39,1.28,1.28,0,0,0-1,.38,1.71,1.71,0,0,0-.42,1.07Z" transform="translate(-1.05 -9.93)"/><path d="M315,138.08v1.4h1.5v.63H315v2.67a1.28,1.28,0,0,0,.15.77.77.77,0,0,0,.6.17h.75v.68h-.75a1.54,1.54,0,0,1-1.16-.35,1.87,1.87,0,0,1-.32-1.27v-2.67h-.53v-.63h.53v-1.4Z" transform="translate(-1.05 -9.93)"/><path d="M317.48,137.56h.73v1h-.73Zm0,1.92h.73v4.92h-.73Z" transform="translate(-1.05 -9.93)"/><path d="M322.92,139.67v.75a2.83,2.83,0,0,0-.62-.28,2.16,2.16,0,0,0-.62-.09,1.33,1.33,0,0,0-1.11.49,2.71,2.71,0,0,0,0,2.8,1.31,1.31,0,0,0,1.11.5,2.16,2.16,0,0,0,.62-.09,2.47,2.47,0,0,0,.62-.29v.75a2.41,2.41,0,0,1-.63.24,3.1,3.1,0,0,1-.69.08,2,2,0,0,1-1.59-.7,2.8,2.8,0,0,1-.59-1.89,2.83,2.83,0,0,1,.59-1.89,2,2,0,0,1,1.63-.69,2.84,2.84,0,0,1,.66.08A2.9,2.9,0,0,1,322.92,139.67Z" transform="translate(-1.05 -9.93)"/><path d="M326.72,153.71h2a2.31,2.31,0,0,1,1.67.56,2.64,2.64,0,0,1,0,3.25,2.3,2.3,0,0,1-1.67.55h-1.11V161h-.89Zm.89.81v2.74h1.11a1.3,1.3,0,0,0,1-.35,1.46,1.46,0,0,0,.34-1,1.43,1.43,0,0,0-.34-1,1.27,1.27,0,0,0-1-.36Z" transform="translate(-1.05 -9.93)"/><path d="M335,156.37a1.36,1.36,0,0,0-.3-.13,1.87,1.87,0,0,0-.35,0,1.25,1.25,0,0,0-1.06.5,2.38,2.38,0,0,0-.36,1.42V161h-.82v-5.47h.82v.85a1.84,1.84,0,0,1,.66-.74,2,2,0,0,1,1-.24h.19l.22,0Z" transform="translate(-1.05 -9.93)"/><path d="M339.85,158v.44h-3.72a2.26,2.26,0,0,0,.51,1.42,1.63,1.63,0,0,0,1.25.48,3.5,3.5,0,0,0,.91-.12,3.87,3.87,0,0,0,.86-.39v.85a4.12,4.12,0,0,1-.89.32,4.05,4.05,0,0,1-.92.1,2.38,2.38,0,0,1-1.87-.76,3,3,0,0,1-.69-2.06,3.28,3.28,0,0,1,.65-2.13,2.16,2.16,0,0,1,1.76-.79,1.91,1.91,0,0,1,1.57.71A3,3,0,0,1,339.85,158Zm-.81-.26a1.83,1.83,0,0,0-.37-1.18,1.19,1.19,0,0,0-1-.44,1.44,1.44,0,0,0-1.08.43,1.87,1.87,0,0,0-.47,1.19Z" transform="translate(-1.05 -9.93)"/><path d="M344.51,155.7v.84a3,3,0,0,0-1.48-.39,1.57,1.57,0,0,0-.9.21.69.69,0,0,0-.3.61.63.63,0,0,0,.21.5,2.56,2.56,0,0,0,.87.33l.27.07a2.52,2.52,0,0,1,1.23.58,1.45,1.45,0,0,1,.36,1,1.49,1.49,0,0,1-.54,1.21,2.26,2.26,0,0,1-1.49.44,4,4,0,0,1-.83-.08,6.28,6.28,0,0,1-.9-.26v-.93a3.55,3.55,0,0,0,.88.39,2.9,2.9,0,0,0,.86.13,1.55,1.55,0,0,0,.88-.21.8.8,0,0,0,.09-1.18,2.78,2.78,0,0,0-1-.38l-.28-.07a2.1,2.1,0,0,1-1.08-.54,1.42,1.42,0,0,1-.34-1,1.48,1.48,0,0,1,.5-1.19,2.08,2.08,0,0,1,1.39-.42,4.63,4.63,0,0,1,.85.08A2.94,2.94,0,0,1,344.51,155.7Z" transform="translate(-1.05 -9.93)"/><path d="M350.27,158v.44h-3.72a2.2,2.2,0,0,0,.5,1.42,1.63,1.63,0,0,0,1.25.48,3.39,3.39,0,0,0,.91-.12,4.16,4.16,0,0,0,.87-.39v.85a4.32,4.32,0,0,1-.89.32,4.2,4.2,0,0,1-.93.1,2.38,2.38,0,0,1-1.87-.76,3,3,0,0,1-.68-2.06,3.23,3.23,0,0,1,.65-2.13,2.15,2.15,0,0,1,1.76-.79,1.93,1.93,0,0,1,1.57.71A3,3,0,0,1,350.27,158Zm-.81-.26a1.89,1.89,0,0,0-.37-1.18,1.2,1.2,0,0,0-1-.44,1.46,1.46,0,0,0-1.09.43,1.87,1.87,0,0,0-.46,1.19Z" transform="translate(-1.05 -9.93)"/><path d="M355.87,157.7V161h-.81v-3.27a2,2,0,0,0-.28-1.16.92.92,0,0,0-.81-.39,1.25,1.25,0,0,0-1,.47,1.9,1.9,0,0,0-.38,1.26V161h-.82v-5.47h.82v.85a2.09,2.09,0,0,1,.68-.73,1.61,1.61,0,0,1,.91-.25,1.5,1.5,0,0,1,1.28.59A2.82,2.82,0,0,1,355.87,157.7Z" transform="translate(-1.05 -9.93)"/><path d="M358.28,154v1.55h1.66v.7h-1.66v3a1.47,1.47,0,0,0,.16.86.86.86,0,0,0,.67.19h.83V161h-.83a1.71,1.71,0,0,1-1.29-.39,2.08,2.08,0,0,1-.36-1.41v-3h-.59v-.7h.59V154Z" transform="translate(-1.05 -9.93)"/><path d="M364.85,157.88V161H364v-.83a1.89,1.89,0,0,1-.68.74,2,2,0,0,1-1,.23,1.56,1.56,0,0,1-1.2-.47,2,2,0,0,1,.11-2.65,2.53,2.53,0,0,1,1.66-.47H364v-.09a1.24,1.24,0,0,0-.37-1,1.47,1.47,0,0,0-1-.34,2.86,2.86,0,0,0-.82.12,3,3,0,0,0-.77.33v-.83a5.47,5.47,0,0,1,.87-.28,3.21,3.21,0,0,1,.81-.1,2,2,0,0,1,1.59.62A2.75,2.75,0,0,1,364.85,157.88Zm-1.61.37a2.71,2.71,0,0,0-1.36.25,1,1,0,0,0-.38.85,1,1,0,0,0,.29.76,1,1,0,0,0,.77.28,1.27,1.27,0,0,0,1.08-.53,2.25,2.25,0,0,0,.4-1.41v-.2Z" transform="translate(-1.05 -9.93)"/><path d="M367.42,154v1.55h1.66v.7h-1.66v3a1.47,1.47,0,0,0,.16.86.86.86,0,0,0,.67.19h.83V161h-.83a1.7,1.7,0,0,1-1.29-.39,2.08,2.08,0,0,1-.36-1.41v-3H366v-.7h.59V154Z" transform="translate(-1.05 -9.93)"/><path d="M370.14,153.4H371v1.14h-.81Zm0,2.13H371V161h-.81Z" transform="translate(-1.05 -9.93)"/><path d="M374.55,155.4a2,2,0,0,1,1.65.76,4,4,0,0,1,0,4.22,2.18,2.18,0,0,1-3.31,0,4,4,0,0,1,0-4.22A2,2,0,0,1,374.55,155.4Zm0,.76a1.17,1.17,0,0,0-1,.57,2.74,2.74,0,0,0-.38,1.54,2.69,2.69,0,0,0,.38,1.55,1.16,1.16,0,0,0,1,.56,1.18,1.18,0,0,0,1-.56,3.33,3.33,0,0,0,0-3.09A1.16,1.16,0,0,0,374.55,156.16Z" transform="translate(-1.05 -9.93)"/><path d="M382.3,157.7V161h-.81v-3.27a2,2,0,0,0-.28-1.16.92.92,0,0,0-.81-.39,1.25,1.25,0,0,0-1,.47,1.9,1.9,0,0,0-.38,1.26V161h-.82v-5.47H379v.85a2.09,2.09,0,0,1,.68-.73,1.61,1.61,0,0,1,.91-.25,1.5,1.5,0,0,1,1.28.59A2.82,2.82,0,0,1,382.3,157.7Z" transform="translate(-1.05 -9.93)"/><path d="M390.41,154v1a6.08,6.08,0,0,0-1-.4,3.4,3.4,0,0,0-.87-.13,1.82,1.82,0,0,0-1.12.31,1.08,1.08,0,0,0-.39.89,1,1,0,0,0,.26.73,2.06,2.06,0,0,0,1,.4l.54.12a2.62,2.62,0,0,1,1.46.74,2,2,0,0,1,.47,1.42,2,2,0,0,1-.63,1.61,2.85,2.85,0,0,1-1.88.54,4.41,4.41,0,0,1-1-.11,7.6,7.6,0,0,1-1.09-.35v-1a4.85,4.85,0,0,0,1.06.51,3.12,3.12,0,0,0,1,.17,1.86,1.86,0,0,0,1.18-.33,1.31,1.31,0,0,0,.11-1.79,1.91,1.91,0,0,0-1-.45l-.54-.12a2.7,2.7,0,0,1-1.44-.69,1.83,1.83,0,0,1-.44-1.3,2,2,0,0,1,.61-1.52,2.43,2.43,0,0,1,1.69-.56,5.07,5.07,0,0,1,.94.09A7.65,7.65,0,0,1,390.41,154Z" transform="translate(-1.05 -9.93)"/><path d="M395.21,155.74v.84a3,3,0,0,0-.69-.31,2.37,2.37,0,0,0-.69-.11,1.48,1.48,0,0,0-1.23.56,3,3,0,0,0,0,3.11,1.47,1.47,0,0,0,1.23.55,2.35,2.35,0,0,0,.69-.1,3,3,0,0,0,.69-.32v.83a3.16,3.16,0,0,1-.7.27,3.87,3.87,0,0,1-.77.08,2.19,2.19,0,0,1-1.77-.77,3.14,3.14,0,0,1-.65-2.1,3.11,3.11,0,0,1,.66-2.1,2.26,2.26,0,0,1,1.81-.77,3,3,0,0,1,.73.09A2.85,2.85,0,0,1,395.21,155.74Z" transform="translate(-1.05 -9.93)"/><path d="M401,157.7V161h-.82v-3.27a2,2,0,0,0-.27-1.16.92.92,0,0,0-.81-.39,1.28,1.28,0,0,0-1,.47,2,2,0,0,0-.38,1.26V161h-.81v-7.6h.81v3a2.12,2.12,0,0,1,.69-.73,1.61,1.61,0,0,1,.91-.25,1.5,1.5,0,0,1,1.28.59A2.82,2.82,0,0,1,401,157.7Z" transform="translate(-1.05 -9.93)"/><path d="M406.81,158v.44h-3.73a2.26,2.26,0,0,0,.51,1.42,1.63,1.63,0,0,0,1.25.48,3.39,3.39,0,0,0,.91-.12,4.16,4.16,0,0,0,.87-.39v.85a4.2,4.2,0,0,1-.9.32,4.05,4.05,0,0,1-.92.1,2.38,2.38,0,0,1-1.87-.76,2.94,2.94,0,0,1-.68-2.06,3.23,3.23,0,0,1,.65-2.13,2.15,2.15,0,0,1,1.76-.79,1.93,1.93,0,0,1,1.57.71A3,3,0,0,1,406.81,158Zm-.81-.26a1.83,1.83,0,0,0-.38-1.18,1.18,1.18,0,0,0-.95-.44,1.45,1.45,0,0,0-1.09.43,1.87,1.87,0,0,0-.47,1.19Z" transform="translate(-1.05 -9.93)"/><path d="M412.15,156.58a2.38,2.38,0,0,1,.73-.89,1.72,1.72,0,0,1,1-.29,1.36,1.36,0,0,1,1.19.6,3,3,0,0,1,.42,1.7V161h-.82v-3.27a2.17,2.17,0,0,0-.25-1.17.85.85,0,0,0-.76-.38,1.19,1.19,0,0,0-1,.47,2,2,0,0,0-.37,1.26V161h-.81v-3.27a2.21,2.21,0,0,0-.25-1.17.88.88,0,0,0-.78-.38,1.18,1.18,0,0,0-1,.47,2,2,0,0,0-.36,1.26V161h-.82v-5.47h.82v.85a1.92,1.92,0,0,1,.66-.74,1.7,1.7,0,0,1,.92-.24,1.4,1.4,0,0,1,.91.3A1.75,1.75,0,0,1,412.15,156.58Z" transform="translate(-1.05 -9.93)"/><path d="M421.3,158v.44h-3.72a2.2,2.2,0,0,0,.5,1.42,1.63,1.63,0,0,0,1.25.48,3.39,3.39,0,0,0,.91-.12,4.16,4.16,0,0,0,.87-.39v.85a4.32,4.32,0,0,1-.89.32,4.2,4.2,0,0,1-.93.1,2.38,2.38,0,0,1-1.87-.76,3,3,0,0,1-.68-2.06,3.28,3.28,0,0,1,.65-2.13,2.15,2.15,0,0,1,1.76-.79,1.93,1.93,0,0,1,1.57.71A3,3,0,0,1,421.3,158Zm-.81-.26a1.89,1.89,0,0,0-.37-1.18,1.19,1.19,0,0,0-1-.44,1.46,1.46,0,0,0-1.09.43,1.87,1.87,0,0,0-.46,1.19Z" transform="translate(-1.05 -9.93)"/><path d="M57.93,138.06v.86a4.66,4.66,0,0,0-.86-.36,2.74,2.74,0,0,0-.78-.12,1.66,1.66,0,0,0-1,.28,1,1,0,0,0-.35.8.86.86,0,0,0,.24.66,1.83,1.83,0,0,0,.89.36l.48.11a2.35,2.35,0,0,1,1.32.66,1.88,1.88,0,0,1,.42,1.28,1.81,1.81,0,0,1-.57,1.45,2.55,2.55,0,0,1-1.68.49,4.17,4.17,0,0,1-.9-.11,6.11,6.11,0,0,1-1-.31v-.91a4.57,4.57,0,0,0,1,.45,2.7,2.7,0,0,0,.92.16,1.64,1.64,0,0,0,1-.3,1,1,0,0,0,.37-.85,1.06,1.06,0,0,0-.26-.76,1.81,1.81,0,0,0-.88-.41l-.49-.1a2.55,2.55,0,0,1-1.29-.62,1.64,1.64,0,0,1-.4-1.18,1.76,1.76,0,0,1,.55-1.37,2.21,2.21,0,0,1,1.52-.5,4.17,4.17,0,0,1,.85.09A4.33,4.33,0,0,1,57.93,138.06Z" transform="translate(-1.05 -9.93)"/><path d="M61.34,144.86a2.81,2.81,0,0,1-.6,1.14,1.09,1.09,0,0,1-.78.27h-.58v-.67h.42a.68.68,0,0,0,.47-.16,2.29,2.29,0,0,0,.37-.75l.13-.37L59,139.48h.77l1.38,3.85,1.39-3.85h.77Z" transform="translate(-1.05 -9.93)"/><path d="M68,141.43v3h-.73v-2.94a1.85,1.85,0,0,0-.24-1.05.86.86,0,0,0-.74-.35,1.11,1.11,0,0,0-.92.42,1.74,1.74,0,0,0-.35,1.14v2.78h-.73v-4.92H65v.76a2,2,0,0,1,.62-.66,1.48,1.48,0,0,1,.82-.22,1.35,1.35,0,0,1,1.15.53A2.55,2.55,0,0,1,68,141.43Z" transform="translate(-1.05 -9.93)"/><path d="M70.15,138.08v1.4h1.49v.63H70.15v2.67a1.3,1.3,0,0,0,.14.77.77.77,0,0,0,.6.17h.75v.68h-.75a1.56,1.56,0,0,1-1.16-.35,1.91,1.91,0,0,1-.32-1.27v-2.67h-.53v-.63h.53v-1.4Z" transform="translate(-1.05 -9.93)"/><path d="M76.28,141.43v3h-.73v-2.94a1.77,1.77,0,0,0-.25-1.05.83.83,0,0,0-.73-.35,1.14,1.14,0,0,0-.93.42,1.74,1.74,0,0,0-.34,1.14v2.78h-.73v-6.84h.73v2.68a2,2,0,0,1,.61-.66,1.5,1.5,0,0,1,.82-.22,1.37,1.37,0,0,1,1.16.53A2.55,2.55,0,0,1,76.28,141.43Z" transform="translate(-1.05 -9.93)"/><path d="M81.52,141.74v.39H78.17a2,2,0,0,0,.45,1.28,1.48,1.48,0,0,0,1.13.43,2.85,2.85,0,0,0,.82-.11,3.77,3.77,0,0,0,.78-.34v.76a3.88,3.88,0,0,1-.81.28,3.31,3.31,0,0,1-.83.1,2.14,2.14,0,0,1-1.68-.69,2.65,2.65,0,0,1-.62-1.85,2.92,2.92,0,0,1,.59-1.92,2,2,0,0,1,1.58-.71A1.73,1.73,0,0,1,81,140,2.73,2.73,0,0,1,81.52,141.74Zm-.73-.24a1.68,1.68,0,0,0-.34-1.06,1.05,1.05,0,0,0-.86-.39,1.26,1.26,0,0,0-1,.38,1.61,1.61,0,0,0-.42,1.07Z" transform="translate(-1.05 -9.93)"/><path d="M83.43,138.08v1.4h1.5v.63h-1.5v2.67a1.28,1.28,0,0,0,.15.77.77.77,0,0,0,.6.17h.75v.68h-.75a1.54,1.54,0,0,1-1.16-.35,1.91,1.91,0,0,1-.32-1.27v-2.67h-.53v-.63h.53v-1.4Z" transform="translate(-1.05 -9.93)"/><path d="M85.89,137.56h.72v1h-.72Zm0,1.92h.72v4.92h-.72Z" transform="translate(-1.05 -9.93)"/><path d="M91.32,139.67v.75a2.63,2.63,0,0,0-.62-.28,2.16,2.16,0,0,0-.62-.09,1.31,1.31,0,0,0-1.1.49,2.18,2.18,0,0,0-.4,1.4,2.14,2.14,0,0,0,.4,1.4,1.29,1.29,0,0,0,1.1.5,2.16,2.16,0,0,0,.62-.09,2.63,2.63,0,0,0,.62-.28v.74a2.41,2.41,0,0,1-.63.24,3.1,3.1,0,0,1-.69.08,2,2,0,0,1-1.59-.7,2.85,2.85,0,0,1-.59-1.89,2.78,2.78,0,0,1,.6-1.89,2,2,0,0,1,1.62-.69,2.84,2.84,0,0,1,.66.08A2.72,2.72,0,0,1,91.32,139.67Z" transform="translate(-1.05 -9.93)"/><path d="M1.35,100.56v-2a2.27,2.27,0,0,1,.56-1.66,2.16,2.16,0,0,1,1.62-.57,2.17,2.17,0,0,1,1.63.57,2.26,2.26,0,0,1,.55,1.66v1.12H8.64v.89Zm.82-.89H4.9V98.55a1.26,1.26,0,0,0-.35-1,1.46,1.46,0,0,0-1-.33,1.45,1.45,0,0,0-1,.33,1.26,1.26,0,0,0-.35,1Z" transform="translate(-1.05 -9.93)"/><path d="M4,92.31a.81.81,0,0,0-.13.3,1.34,1.34,0,0,0-.05.35A1.25,1.25,0,0,0,4.34,94a2.4,2.4,0,0,0,1.42.36H8.64v.82H3.18v-.82H4a1.66,1.66,0,0,1-.74-.66,1.82,1.82,0,0,1-.25-1,1.37,1.37,0,0,1,0-.19c0-.06,0-.14,0-.22Z" transform="translate(-1.05 -9.93)"/><path d="M3,89.57a2,2,0,0,1,.77-1.66,3.31,3.31,0,0,1,2.11-.61,3.32,3.32,0,0,1,2.1.61,2.16,2.16,0,0,1,0,3.31,3.32,3.32,0,0,1-2.1.6,3.31,3.31,0,0,1-2.11-.6A2,2,0,0,1,3,89.57Zm.77,0a1.15,1.15,0,0,0,.56,1A2.69,2.69,0,0,0,5.92,91a2.76,2.76,0,0,0,1.54-.37,1.18,1.18,0,0,0,.56-1,1.16,1.16,0,0,0-.56-1,2.76,2.76,0,0,0-1.54-.38,2.74,2.74,0,0,0-1.54.38A1.17,1.17,0,0,0,3.81,89.57Z" transform="translate(-1.05 -9.93)"/><path d="M7.82,85.19h2.9V86H3.18v-.81H4a1.8,1.8,0,0,1-.73-.65A1.74,1.74,0,0,1,3,83.61a1.71,1.71,0,0,1,.79-1.45,3.51,3.51,0,0,1,2.09-.56A3.5,3.5,0,0,1,8,82.16a1.71,1.71,0,0,1,.79,1.45,1.74,1.74,0,0,1-.24.93A1.8,1.8,0,0,1,7.82,85.19Zm-1.9-2.75a2.88,2.88,0,0,0-1.56.36,1.19,1.19,0,0,0,0,2,2.88,2.88,0,0,0,1.56.37,2.86,2.86,0,0,0,1.55-.37,1.19,1.19,0,0,0,0-2A2.87,2.87,0,0,0,5.92,82.44Z" transform="translate(-1.05 -9.93)"/><path d="M3,78.35a2,2,0,0,1,.77-1.66,3.31,3.31,0,0,1,2.11-.6,3.32,3.32,0,0,1,2.1.6A2.17,2.17,0,0,1,8,80a3.32,3.32,0,0,1-2.1.6A3.31,3.31,0,0,1,3.81,80,2,2,0,0,1,3,78.35Zm.77,0a1.18,1.18,0,0,0,.56,1,2.78,2.78,0,0,0,1.55.38,2.76,2.76,0,0,0,1.54-.38,1.23,1.23,0,0,0,0-2.06A2.76,2.76,0,0,0,5.92,77a2.74,2.74,0,0,0-1.54.37A1.18,1.18,0,0,0,3.81,78.35Z" transform="translate(-1.05 -9.93)"/><path d="M4,71.9a.81.81,0,0,0-.13.3,1.33,1.33,0,0,0,.45,1.4A2.33,2.33,0,0,0,5.76,74H8.64v.81H3.18V74H4a1.72,1.72,0,0,1-.74-.66,1.88,1.88,0,0,1-.25-1,1.41,1.41,0,0,1,0-.18c0-.07,0-.14,0-.23Z" transform="translate(-1.05 -9.93)"/><path d="M1.62,70.25H3.18V68.59h.69v1.66h3a1.45,1.45,0,0,0,.86-.16.86.86,0,0,0,.19-.67v-.83h.75v.83a1.7,1.7,0,0,1-.38,1.29,2.11,2.11,0,0,1-1.42.36h-3v.59H3.18v-.59H1.62Z" transform="translate(-1.05 -9.93)"/><path d="M1.05,67.53v-.81H2.18v.81Zm2.13,0v-.81H8.64v.81Z" transform="translate(-1.05 -9.93)"/><path d="M3,63.12a2,2,0,0,1,.77-1.65,3.31,3.31,0,0,1,2.11-.61,3.32,3.32,0,0,1,2.1.61,2.16,2.16,0,0,1,0,3.31,3.32,3.32,0,0,1-2.1.6,3.31,3.31,0,0,1-2.11-.6A2,2,0,0,1,3,63.12Zm.77,0a1.16,1.16,0,0,0,.56,1,2.78,2.78,0,0,0,1.55.38,2.68,2.68,0,0,0,1.54-.38,1.22,1.22,0,0,0,0-2.05,2.76,2.76,0,0,0-1.54-.38,2.74,2.74,0,0,0-1.54.38A1.16,1.16,0,0,0,3.81,63.12Z" transform="translate(-1.05 -9.93)"/><path d="M5.34,55.43h3.3v.81H5.37a2,2,0,0,0-1.16.28.91.91,0,0,0-.38.81,1.28,1.28,0,0,0,.46,1,2,2,0,0,0,1.26.37H8.64v.82H3.18v-.82H4a2,2,0,0,1-.74-.68A1.61,1.61,0,0,1,3,57.15a1.5,1.5,0,0,1,.59-1.28A2.84,2.84,0,0,1,5.34,55.43Z" transform="translate(-1.05 -9.93)"/><path d="M1.92,46H3a3.27,3.27,0,0,0-.7,1A2.65,2.65,0,0,0,2,48.06a2.07,2.07,0,0,0,.77,1.72,3.51,3.51,0,0,0,2.21.6,3.49,3.49,0,0,0,2.2-.6A2.07,2.07,0,0,0,8,48.06,2.65,2.65,0,0,0,7.75,47a3.27,3.27,0,0,0-.7-1h1a3.39,3.39,0,0,1,.53,1,3.3,3.3,0,0,1,.18,1.1,2.89,2.89,0,0,1-1,2.34A4.13,4.13,0,0,1,5,51.31a4.14,4.14,0,0,1-2.77-.86,2.89,2.89,0,0,1-1-2.34A3.31,3.31,0,0,1,1.4,47,3,3,0,0,1,1.92,46Z" transform="translate(-1.05 -9.93)"/><path d="M3,42.78a2,2,0,0,1,.77-1.66,3.31,3.31,0,0,1,2.11-.6,3.32,3.32,0,0,1,2.1.6,2.17,2.17,0,0,1,0,3.32,3.38,3.38,0,0,1-2.1.59,3.37,3.37,0,0,1-2.11-.59A2,2,0,0,1,3,42.78Zm.77,0a1.18,1.18,0,0,0,.56,1,2.78,2.78,0,0,0,1.55.37,2.76,2.76,0,0,0,1.54-.37,1.23,1.23,0,0,0,0-2.06,2.76,2.76,0,0,0-1.54-.37,2.74,2.74,0,0,0-1.54.37A1.17,1.17,0,0,0,3.81,42.78Z" transform="translate(-1.05 -9.93)"/><path d="M4,36.33a.81.81,0,0,0-.13.3A1.33,1.33,0,0,0,4.34,38a2.33,2.33,0,0,0,1.42.37H8.64v.81H3.18V38.4H4a1.68,1.68,0,0,1-.74-.67,1.82,1.82,0,0,1-.25-1,1.41,1.41,0,0,1,0-.18,2.08,2.08,0,0,1,0-.23Z" transform="translate(-1.05 -9.93)"/><path d="M4,32.63a.81.81,0,0,0-.13.3,1.29,1.29,0,0,0-.05.35,1.25,1.25,0,0,0,.5,1.06,2.4,2.4,0,0,0,1.42.36H8.64v.82H3.18V34.7H4A1.72,1.72,0,0,1,3.29,34a1.87,1.87,0,0,1-.25-1,1.37,1.37,0,0,1,0-.19,1.92,1.92,0,0,1,0-.22Z" transform="translate(-1.05 -9.93)"/><path d="M5.69,27.58h.43V31.3a2.26,2.26,0,0,0,1.42-.51A1.63,1.63,0,0,0,8,29.54a3.5,3.5,0,0,0-.12-.91,3.83,3.83,0,0,0-.38-.86h.85a5,5,0,0,1,.31.89,4.06,4.06,0,0,1,.11.92A2.39,2.39,0,0,1,8,31.45,2.93,2.93,0,0,1,6,32.14a3.28,3.28,0,0,1-2.13-.65A2.19,2.19,0,0,1,3,29.73a1.92,1.92,0,0,1,.71-1.57A3,3,0,0,1,5.69,27.58Zm-.27.81a1.78,1.78,0,0,0-1.17.37,1.16,1.16,0,0,0-.44,1,1.43,1.43,0,0,0,.42,1.08,1.88,1.88,0,0,0,1.2.47Z" transform="translate(-1.05 -9.93)"/><path d="M3.39,22.71h.84a3,3,0,0,0-.32.69,2.35,2.35,0,0,0-.1.69,1.47,1.47,0,0,0,.55,1.23,2.47,2.47,0,0,0,1.56.43,2.46,2.46,0,0,0,1.55-.43A1.47,1.47,0,0,0,8,24.09a2.35,2.35,0,0,0-.1-.69,3,3,0,0,0-.32-.69h.83a3,3,0,0,1,.27.7,3.19,3.19,0,0,1,.09.77A2.2,2.2,0,0,1,8,26a3.19,3.19,0,0,1-2.09.65,3.12,3.12,0,0,1-2.11-.66A2.26,2.26,0,0,1,3,24.13a3,3,0,0,1,.09-.73A2.88,2.88,0,0,1,3.39,22.71Z" transform="translate(-1.05 -9.93)"/><path d="M1.62,20.5H3.18V18.84h.69V20.5h3a1.45,1.45,0,0,0,.86-.16.86.86,0,0,0,.19-.67v-.83h.75v.83A1.72,1.72,0,0,1,8.26,21a2.11,2.11,0,0,1-1.42.36h-3v.59H3.18v-.59H1.62Z" transform="translate(-1.05 -9.93)"/><path d="M135.35,137.84h1.08l2.62,5.49v-5.49h.77v6.56h-1.07l-2.62-5.49v5.49h-.78Z" transform="translate(-1.05 -9.93)"/><path d="M144.84,141.59v2.81h-.73v-.75a1.68,1.68,0,0,1-.62.67,1.8,1.8,0,0,1-.91.21,1.4,1.4,0,0,1-1.08-.43,1.56,1.56,0,0,1-.4-1.13,1.54,1.54,0,0,1,.5-1.25,2.21,2.21,0,0,1,1.49-.43h1v-.07a1.13,1.13,0,0,0-.33-.87,1.33,1.33,0,0,0-.93-.3,2.57,2.57,0,0,0-.73.1,2.84,2.84,0,0,0-.7.3v-.75a4.39,4.39,0,0,1,.78-.25,3.1,3.1,0,0,1,.73-.09,1.83,1.83,0,0,1,1.44.55A2.57,2.57,0,0,1,144.84,141.59Zm-1.45.34a2.35,2.35,0,0,0-1.22.22.85.85,0,0,0-.34.77.92.92,0,0,0,.25.68.94.94,0,0,0,.7.25,1.17,1.17,0,0,0,1-.48,2,2,0,0,0,.36-1.26v-.18Z" transform="translate(-1.05 -9.93)"/><path d="M147.06,138.08v1.4h1.5v.63h-1.5v2.67a1.28,1.28,0,0,0,.15.77.77.77,0,0,0,.6.17h.75v.68h-.75a1.54,1.54,0,0,1-1.16-.35,1.85,1.85,0,0,1-.32-1.27v-2.67h-.54v-.63h.54v-1.4Z" transform="translate(-1.05 -9.93)"/><path d="M149.44,142.46v-3h.72v3a1.89,1.89,0,0,0,.25,1,.83.83,0,0,0,.73.34,1.14,1.14,0,0,0,.94-.41,1.8,1.8,0,0,0,.34-1.14v-2.79h.73v4.92h-.73v-.75a2,2,0,0,1-.61.66,1.5,1.5,0,0,1-.82.22,1.37,1.37,0,0,1-1.16-.53A2.55,2.55,0,0,1,149.44,142.46Z" transform="translate(-1.05 -9.93)"/><path d="M157.21,140.24a.66.66,0,0,0-.27-.12,1,1,0,0,0-.31,0,1.11,1.11,0,0,0-.95.45,2.1,2.1,0,0,0-.33,1.28v2.59h-.73v-4.92h.73v.76a1.55,1.55,0,0,1,.6-.66,1.66,1.66,0,0,1,.89-.22H157l.2,0Z" transform="translate(-1.05 -9.93)"/><path d="M161.44,141.59v2.81h-.73v-.75a1.76,1.76,0,0,1-.62.67,1.83,1.83,0,0,1-.91.21,1.37,1.37,0,0,1-1.08-.43,1.56,1.56,0,0,1-.4-1.13,1.54,1.54,0,0,1,.49-1.25,2.24,2.24,0,0,1,1.5-.43h1v-.07a1.13,1.13,0,0,0-.33-.87,1.33,1.33,0,0,0-.93-.3,2.73,2.73,0,0,0-1.43.4v-.75a4.05,4.05,0,0,1,.77-.25,3.17,3.17,0,0,1,.73-.09,1.83,1.83,0,0,1,1.44.55A2.51,2.51,0,0,1,161.44,141.59Zm-1.46.34a2.39,2.39,0,0,0-1.22.22.85.85,0,0,0-.34.77.88.88,0,0,0,1,.93,1.16,1.16,0,0,0,1-.48,2,2,0,0,0,.37-1.26v-.18Z" transform="translate(-1.05 -9.93)"/><path d="M162.93,137.56h.73v6.84h-.73Z" transform="translate(-1.05 -9.93)"/><g class="cls-2"><rect class="cls-3" x="243.22" y="61.86" width="24.86" height="110.73"/></g><g class="cls-2"><rect class="cls-3" x="274.3" y="59.28" width="24.86" height="113.32"/></g><g class="cls-2"><rect class="cls-3" x="305.38" y="43.78" width="24.86" height="128.82"/></g><g class="cls-2"><rect class="cls-3" x="336.46" y="50.79" width="24.86" height="121.81"/></g><line x1="255.65" y1="87.7" x2="255.65" y2="91.2"/><line class="cls-4" x1="255.65" y1="87.7" x2="255.65" y2="91.2"/><path d="M245.06,116.62l.92-.53,3.14,2.77-.82-4.11.92-.53,2.92,5-.6.35L249,115.18l.82,4.14-.61.36L246,116.89l2.56,4.44-.59.34Z" transform="translate(-1.05 -9.93)"/><path d="M254.75,114.88,256,117l-.56.33-.33-.58a1.48,1.48,0,0,1-.19.78,1.58,1.58,0,0,1-.6.57,1.23,1.23,0,0,1-1,.16,1.42,1.42,0,0,1-.82-.7,1.39,1.39,0,0,1-.17-1.18,2,2,0,0,1,1-1l.79-.46,0-.06a1,1,0,0,0-.64-.51,1.19,1.19,0,0,0-.85.17,2.54,2.54,0,0,0-.52.41,2.7,2.7,0,0,0-.4.54l-.33-.57a3.71,3.71,0,0,1,.48-.55,3.28,3.28,0,0,1,.53-.39,1.61,1.61,0,0,1,1.35-.21A2.19,2.19,0,0,1,254.75,114.88Zm-1,.9a2.1,2.1,0,0,0-.84.72.75.75,0,0,0,.08.74.8.8,0,0,0,.5.41.83.83,0,0,0,.65-.11,1,1,0,0,0,.53-.8,1.82,1.82,0,0,0-.28-1.14l-.08-.14Z" transform="translate(-1.05 -9.93)"/><path d="M257.8,111l-.17,2.56,2.42,1.19-.66.39-1.85-.92-.14,2.06-.66.38.18-2.75-2.25-1.1.66-.38,1.68.82.13-1.87Z" transform="translate(-1.05 -9.93)"/><path d="M262.67,112.42l1-.58L261.45,108l-.95.87-.36-.62.95-.87.61-.35,2.59,4.47,1-.58.33.58L263,113Z" transform="translate(-1.05 -9.93)"/><line x1="286.73" y1="87.7" x2="286.73" y2="91.2"/><line class="cls-4" x1="286.73" y1="87.7" x2="286.73" y2="91.2"/><path d="M276.14,116.62l.92-.53,3.14,2.77-.82-4.11.92-.53,2.91,5-.59.35-2.56-4.44.82,4.14-.61.36-3.18-2.79,2.56,4.44-.59.34Z" transform="translate(-1.05 -9.93)"/><path d="M285.83,114.88l1.25,2.16-.56.33-.34-.58a1.39,1.39,0,0,1-.18.78,1.58,1.58,0,0,1-.6.57,1.24,1.24,0,0,1-1,.16,1.62,1.62,0,0,1-1-1.88,2,2,0,0,1,1-1l.79-.46,0-.06a1,1,0,0,0-.64-.51,1.19,1.19,0,0,0-.85.17,2.29,2.29,0,0,0-.52.41,2.36,2.36,0,0,0-.4.54l-.33-.57a3.71,3.71,0,0,1,.48-.55,3.28,3.28,0,0,1,.53-.39,1.61,1.61,0,0,1,1.35-.21A2.19,2.19,0,0,1,285.83,114.88Zm-1,.9a2.1,2.1,0,0,0-.84.72.75.75,0,0,0,.08.74.77.77,0,0,0,.5.41.8.8,0,0,0,.64-.11,1,1,0,0,0,.54-.8,1.89,1.89,0,0,0-.28-1.14l-.08-.14Z" transform="translate(-1.05 -9.93)"/><path d="M288.88,111l-.17,2.56,2.42,1.19-.66.39-1.85-.92-.14,2.06-.66.38.18-2.75-2.25-1.1.66-.38,1.68.82.13-1.87Z" transform="translate(-1.05 -9.93)"/><path d="M293.93,113l-.36-.63a2.7,2.7,0,0,0,.58-.08,2,2,0,0,0,.5-.21,1.22,1.22,0,0,0,.67-1,3,3,0,0,0-.43-1.59,1.49,1.49,0,0,1-.19.7,1.29,1.29,0,0,1-.51.5,1.54,1.54,0,0,1-1.34.17,2.09,2.09,0,0,1-1.12-1,2.05,2.05,0,0,1-.31-1.48,1.6,1.6,0,0,1,.83-1.11,1.54,1.54,0,0,1,1.59,0,4.16,4.16,0,0,1,1.54,1.71,3.66,3.66,0,0,1,.59,2.2,1.82,1.82,0,0,1-1,1.5,2.52,2.52,0,0,1-.5.22A4.11,4.11,0,0,1,293.93,113Zm0-2.85a.9.9,0,0,0,.48-.7,1.61,1.61,0,0,0-.26-1,1.64,1.64,0,0,0-.74-.72.9.9,0,0,0-.84.06.91.91,0,0,0-.47.7,1.6,1.6,0,0,0,.25,1,1.69,1.69,0,0,0,.74.72A.89.89,0,0,0,293.92,110.1Z" transform="translate(-1.05 -9.93)"/><line x1="317.81" y1="87.7" x2="317.81" y2="91.2"/><line class="cls-4" x1="317.81" y1="87.7" x2="317.81" y2="91.2"/><path d="M299.82,125.17l.91-.53,3.15,2.77-.82-4.11.92-.53,2.91,5-.6.35-2.56-4.44.83,4.14-.62.36-3.17-2.79,2.56,4.44-.6.34Z" transform="translate(-1.05 -9.93)"/><path d="M305.05,121.86l.56-.32.45.79-.56.32Zm.85,1.48.56-.32,2.19,3.79-.56.32Z" transform="translate(-1.05 -9.93)"/><path d="M311.33,122.2l1.33,2.29-.57.33-1.3-2.27a1.67,1.67,0,0,0-.66-.7.78.78,0,0,0-.72.06,1,1,0,0,0-.53.74,1.52,1.52,0,0,0,.25,1l1.23,2.15-.56.32-2.19-3.79.56-.32.34.59a1.88,1.88,0,0,1,.18-.79,1.42,1.42,0,0,1,.53-.53,1.22,1.22,0,0,1,1.13-.11A2.27,2.27,0,0,1,311.33,122.2Z" transform="translate(-1.05 -9.93)"/><path d="M313.54,118.19l1.09,1.88,1.7-1,.33.58-1.7,1,1.09,1.88-.51.3-1.09-1.89-1.7,1-.33-.57,1.7-1L313,118.48Z" transform="translate(-1.05 -9.93)"/><path d="M316.1,115.77l.92-.53,3.15,2.76-.83-4.1.92-.53,2.92,5-.6.34L320,114.33l.82,4.14-.61.35L317.05,116l2.56,4.43-.59.35Z" transform="translate(-1.05 -9.93)"/><path d="M325.79,114l1.25,2.16-.56.32-.33-.57a1.4,1.4,0,0,1-.79,1.35,1.26,1.26,0,0,1-1,.15,1.47,1.47,0,0,1-.82-.69,1.41,1.41,0,0,1-.17-1.19,2,2,0,0,1,1-1l.79-.45,0-.06a1,1,0,0,0-.64-.52,1.13,1.13,0,0,0-.84.18,2.63,2.63,0,0,0-.53.4,2.7,2.7,0,0,0-.4.54l-.33-.57a3.68,3.68,0,0,1,.48-.54,2.67,2.67,0,0,1,.53-.39,1.58,1.58,0,0,1,1.35-.22A2.26,2.26,0,0,1,325.79,114Zm-1,.9a2.17,2.17,0,0,0-.84.71.75.75,0,0,0,.08.74.85.85,0,0,0,.5.42.88.88,0,0,0,.65-.12,1,1,0,0,0,.53-.8,1.82,1.82,0,0,0-.28-1.14l-.08-.13Z" transform="translate(-1.05 -9.93)"/><path d="M328.84,110.1l-.17,2.55,2.42,1.2-.66.38-1.85-.92-.14,2.07-.66.38L328,113l-2.26-1.11.66-.38,1.68.83.13-1.87Z" transform="translate(-1.05 -9.93)"/><path d="M333.71,111.57l1-.58-2.23-3.86-.95.88-.36-.62.95-.87.61-.36,2.59,4.48,1-.58.34.57-2.62,1.51Z" transform="translate(-1.05 -9.93)"/><line x1="348.89" y1="87.7" x2="348.89" y2="91.2"/><line class="cls-4" x1="348.89" y1="87.7" x2="348.89" y2="91.2"/><path d="M330.9,125.17l.91-.53,3.15,2.77-.82-4.11.91-.53,2.92,5-.6.35-2.56-4.44.83,4.14-.62.36-3.17-2.79,2.56,4.44-.6.34Z" transform="translate(-1.05 -9.93)"/><path d="M336.13,121.86l.56-.32.45.79-.56.32Zm.85,1.48.56-.32,2.19,3.79-.56.32Z" transform="translate(-1.05 -9.93)"/><path d="M342.41,122.2l1.32,2.29-.56.33-1.31-2.27a1.59,1.59,0,0,0-.65-.7.78.78,0,0,0-.72.06,1,1,0,0,0-.53.74,1.55,1.55,0,0,0,.24,1l1.24,2.15-.56.32-2.19-3.79.56-.32.34.59a1.74,1.74,0,0,1,.18-.79,1.35,1.35,0,0,1,.53-.53,1.2,1.2,0,0,1,1.12-.11A2.24,2.24,0,0,1,342.41,122.2Z" transform="translate(-1.05 -9.93)"/><path d="M344.62,118.19l1.09,1.88,1.7-1,.33.58-1.7,1,1.09,1.88-.51.3-1.09-1.89-1.7,1-.33-.57,1.7-1-1.09-1.89Z" transform="translate(-1.05 -9.93)"/><path d="M347.18,115.77l.92-.53,3.14,2.76-.82-4.1.92-.53,2.92,5-.6.34-2.56-4.43.82,4.14-.61.35L348.13,116l2.56,4.43-.59.35Z" transform="translate(-1.05 -9.93)"/><path d="M356.87,114l1.25,2.16-.56.32-.34-.57a1.41,1.41,0,0,1-.18.78,1.58,1.58,0,0,1-.6.57,1.26,1.26,0,0,1-1,.15,1.43,1.43,0,0,1-.82-.69,1.41,1.41,0,0,1-.17-1.19,2,2,0,0,1,1-1l.79-.45,0-.06a1,1,0,0,0-.64-.52,1.16,1.16,0,0,0-.85.18,2.88,2.88,0,0,0-.52.4,2.36,2.36,0,0,0-.4.54l-.33-.57a3.18,3.18,0,0,1,.48-.54,2.41,2.41,0,0,1,.53-.39,1.58,1.58,0,0,1,1.35-.22A2.26,2.26,0,0,1,356.87,114Zm-1,.9a2.17,2.17,0,0,0-.84.71.75.75,0,0,0,.08.74.85.85,0,0,0,.5.42.88.88,0,0,0,.65-.12,1,1,0,0,0,.53-.8,1.82,1.82,0,0,0-.28-1.14l-.08-.13Z" transform="translate(-1.05 -9.93)"/><path d="M359.92,110.1l-.17,2.55,2.42,1.2-.66.38-1.85-.92-.14,2.07-.66.38L359,113l-2.25-1.11.66-.38,1.68.83.13-1.87Z" transform="translate(-1.05 -9.93)"/><path d="M365,112.09l-.36-.62a2.61,2.61,0,0,0,.58-.09,2.25,2.25,0,0,0,.51-.2,1.26,1.26,0,0,0,.66-1,3,3,0,0,0-.43-1.59,1.53,1.53,0,0,1-.19.71,1.44,1.44,0,0,1-.51.5,1.54,1.54,0,0,1-1.34.16,2.1,2.1,0,0,1-1.12-1,2.14,2.14,0,0,1-.31-1.49,1.58,1.58,0,0,1,.83-1.1,1.52,1.52,0,0,1,1.59,0,4.3,4.3,0,0,1,1.54,1.71,3.68,3.68,0,0,1,.59,2.2,1.85,1.85,0,0,1-1,1.51,2.52,2.52,0,0,1-.5.22A4.16,4.16,0,0,1,365,112.09Zm0-2.85a.9.9,0,0,0,.48-.69,1.92,1.92,0,0,0-1-1.73.93.93,0,0,0-.84.07.91.91,0,0,0-.47.69,1.92,1.92,0,0,0,1,1.73A.93.93,0,0,0,365,109.24Z" transform="translate(-1.05 -9.93)"/><line x1="237.32" y1="87.7" x2="233.82" y2="87.7"/><line class="cls-4" x1="237.32" y1="87.7" x2="233.82" y2="87.7"/><line x1="237.32" y1="70.72" x2="233.82" y2="70.72"/><line class="cls-4" x1="237.32" y1="70.72" x2="233.82" y2="70.72"/><line x1="237.32" y1="53.74" x2="233.82" y2="53.74"/><line class="cls-4" x1="237.32" y1="53.74" x2="233.82" y2="53.74"/><line x1="237.32" y1="36.76" x2="233.82" y2="36.76"/><line class="cls-4" x1="237.32" y1="36.76" x2="233.82" y2="36.76"/><line x1="237.32" y1="19.78" x2="233.82" y2="19.78"/><line class="cls-4" x1="237.32" y1="19.78" x2="233.82" y2="19.78"/><line x1="237.32" y1="2.8" x2="233.82" y2="2.8"/><line class="cls-4" x1="237.32" y1="2.8" x2="233.82" y2="2.8"/><g class="cls-2"><line class="cls-5" x1="255.65" y1="70.87" x2="255.65" y2="52.85"/><line class="cls-5" x1="286.73" y1="65.42" x2="286.73" y2="53.14"/><line class="cls-5" x1="317.81" y1="52.92" x2="317.81" y2="34.64"/><line class="cls-5" x1="348.89" y1="57.92" x2="348.89" y2="43.66"/></g><line class="cls-6" x1="237.32" y1="87.7" x2="237.32" y2="2.8"/><line class="cls-6" x1="237.32" y1="87.7" x2="367.23" y2="87.7"/><g class="cls-7"><rect class="cls-8" x="391.91" y="48.57" width="24.86" height="124.02"/></g><g class="cls-7"><rect class="cls-8" x="422.98" y="34.92" width="24.86" height="137.68"/></g><g class="cls-7"><rect class="cls-8" x="454.06" y="30.49" width="24.86" height="142.11"/></g><g class="cls-7"><rect class="cls-8" x="485.14" y="18.31" width="24.86" height="154.29"/></g><line x1="404.34" y1="87.7" x2="404.34" y2="91.2"/><line class="cls-4" x1="404.34" y1="87.7" x2="404.34" y2="91.2"/><path d="M393.75,116.62l.91-.53,3.15,2.77-.82-4.11.91-.53,2.92,5-.6.35-2.56-4.44.83,4.14-.62.36-3.17-2.78,2.56,4.43-.6.34Z" transform="translate(-1.05 -9.93)"/><path d="M403.43,114.88l1.25,2.16-.56.33-.33-.58a1.39,1.39,0,0,1-.18.78,1.63,1.63,0,0,1-.61.58,1.26,1.26,0,0,1-1,.15,1.4,1.4,0,0,1-.81-.7,1.32,1.32,0,0,1-.17-1.18,2,2,0,0,1,1-1l.78-.45,0-.07a1,1,0,0,0-.64-.51,1.19,1.19,0,0,0-.85.17,2.52,2.52,0,0,0-.92,1L400,115a4.44,4.44,0,0,1,.49-.55A3.21,3.21,0,0,1,401,114a1.62,1.62,0,0,1,1.35-.21A2.19,2.19,0,0,1,403.43,114.88Zm-1,.9a2.07,2.07,0,0,0-.85.72.78.78,0,0,0,.08.74.79.79,0,0,0,1.15.3,1,1,0,0,0,.53-.8,1.76,1.76,0,0,0-.28-1.14l-.08-.14Z" transform="translate(-1.05 -9.93)"/><path d="M406.48,111l-.17,2.56,2.42,1.19-.66.39-1.85-.92-.13,2.06-.66.38.18-2.75-2.26-1.1.66-.38,1.69.82.12-1.87Z" transform="translate(-1.05 -9.93)"/><path d="M411.36,112.42l1-.58L410.14,108l-1,.88-.36-.63.95-.87.62-.35,2.58,4.47,1-.58.33.58L411.69,113Z" transform="translate(-1.05 -9.93)"/><line x1="435.42" y1="87.7" x2="435.42" y2="91.2"/><line class="cls-4" x1="435.42" y1="87.7" x2="435.42" y2="91.2"/><path d="M424.82,116.62l.92-.53,3.15,2.77-.82-4.11.91-.53,2.92,5-.6.35-2.56-4.44.82,4.14-.61.36-3.17-2.79,2.56,4.44-.6.34Z" transform="translate(-1.05 -9.93)"/><path d="M434.51,114.88l1.25,2.16-.56.33-.33-.58a1.48,1.48,0,0,1-.18.78,1.61,1.61,0,0,1-.61.57,1.23,1.23,0,0,1-1,.16,1.4,1.4,0,0,1-.81-.7,1.36,1.36,0,0,1-.18-1.18,2,2,0,0,1,1-1l.78-.46,0-.06a1,1,0,0,0-.63-.51,1.19,1.19,0,0,0-.85.17,2.35,2.35,0,0,0-.53.41,2.7,2.7,0,0,0-.4.54L431,115a4.44,4.44,0,0,1,.49-.55,3.21,3.21,0,0,1,.52-.39,1.61,1.61,0,0,1,1.35-.21A2.19,2.19,0,0,1,434.51,114.88Zm-1,.9a2.1,2.1,0,0,0-.84.72.78.78,0,0,0,.08.74.79.79,0,0,0,1.15.3,1,1,0,0,0,.53-.8,1.82,1.82,0,0,0-.28-1.14l-.08-.14Z" transform="translate(-1.05 -9.93)"/><path d="M437.56,111l-.17,2.56,2.42,1.19-.66.39-1.85-.92-.13,2.06-.66.38.18-2.75-2.26-1.1.66-.38,1.69.82.12-1.87Z" transform="translate(-1.05 -9.93)"/><path d="M442.62,113l-.36-.63a2.61,2.61,0,0,0,.57-.08,2.1,2.1,0,0,0,.51-.21,1.24,1.24,0,0,0,.67-1,3.09,3.09,0,0,0-.44-1.59,1.38,1.38,0,0,1-.19.7,1.33,1.33,0,0,1-.5.5,1.57,1.57,0,0,1-1.35.17,2.48,2.48,0,0,1-1.43-2.51,1.62,1.62,0,0,1,.83-1.11,1.54,1.54,0,0,1,1.59,0,4.24,4.24,0,0,1,1.55,1.71,3.73,3.73,0,0,1,.59,2.2,1.86,1.86,0,0,1-1,1.5,2.81,2.81,0,0,1-.5.22A4.48,4.48,0,0,1,442.62,113Zm0-2.85a.9.9,0,0,0,.48-.7,1.92,1.92,0,0,0-1-1.72.9.9,0,0,0-.84.06.91.91,0,0,0-.47.7,1.61,1.61,0,0,0,.26,1,1.59,1.59,0,0,0,.74.72A.88.88,0,0,0,442.6,110.1Z" transform="translate(-1.05 -9.93)"/><line x1="466.49" y1="87.7" x2="466.49" y2="91.2"/><line class="cls-4" x1="466.49" y1="87.7" x2="466.49" y2="91.2"/><path d="M448.5,125.17l.92-.53,3.14,2.77-.82-4.11.92-.53,2.92,5-.6.35-2.56-4.44.82,4.14-.61.36-3.18-2.79,2.56,4.44-.59.34Z" transform="translate(-1.05 -9.93)"/><path d="M453.73,121.86l.56-.32.46.79-.56.32Zm.85,1.48.56-.32,2.19,3.79-.56.32Z" transform="translate(-1.05 -9.93)"/><path d="M460,122.2l1.32,2.29-.56.33-1.31-2.27a1.72,1.72,0,0,0-.65-.7.78.78,0,0,0-.72.06,1,1,0,0,0-.53.74,1.49,1.49,0,0,0,.24,1l1.24,2.15-.57.32-2.19-3.79.57-.32.34.59a1.62,1.62,0,0,1,.18-.79,1.29,1.29,0,0,1,.53-.53,1.19,1.19,0,0,1,1.12-.11A2.24,2.24,0,0,1,460,122.2Z" transform="translate(-1.05 -9.93)"/><path d="M462.23,118.19l1.09,1.88,1.69-1,.33.58-1.69,1,1.09,1.88-.51.3-1.09-1.89-1.7,1-.33-.57,1.7-1-1.09-1.89Z" transform="translate(-1.05 -9.93)"/><path d="M464.79,115.77l.91-.53,3.15,2.76-.82-4.1.91-.53,2.92,5-.6.34-2.56-4.43.83,4.14-.62.35L465.74,116l2.56,4.43-.6.35Z" transform="translate(-1.05 -9.93)"/><path d="M474.48,114l1.24,2.16-.56.32-.33-.57a1.41,1.41,0,0,1-.18.78,1.61,1.61,0,0,1-.61.57,1.26,1.26,0,0,1-1,.15,1.42,1.42,0,0,1-.81-.69,1.34,1.34,0,0,1-.17-1.19,2,2,0,0,1,1-1l.78-.45,0-.06a1,1,0,0,0-.64-.52,1.16,1.16,0,0,0-.85.18,2.57,2.57,0,0,0-.52.4,2.36,2.36,0,0,0-.4.54l-.34-.57a3.72,3.72,0,0,1,.49-.54,2.36,2.36,0,0,1,.52-.39,1.59,1.59,0,0,1,1.35-.22A2.32,2.32,0,0,1,474.48,114Zm-1,.9a2,2,0,0,0-.84.71.74.74,0,0,0,.07.74.77.77,0,0,0,1.15.3,1,1,0,0,0,.54-.8,1.83,1.83,0,0,0-.29-1.14l-.08-.13Z" transform="translate(-1.05 -9.93)"/><path d="M477.52,110.1l-.17,2.55,2.42,1.2-.66.38-1.85-.92-.13,2.07-.66.38.18-2.75-2.26-1.11.67-.38,1.68.83.12-1.87Z" transform="translate(-1.05 -9.93)"/><path d="M482.4,111.57l1-.58-2.22-3.86-1,.88-.36-.62.95-.87.62-.36,2.58,4.48,1-.58.33.57-2.62,1.51Z" transform="translate(-1.05 -9.93)"/><line x1="497.57" y1="87.7" x2="497.57" y2="91.2"/><line class="cls-4" x1="497.57" y1="87.7" x2="497.57" y2="91.2"/><path d="M479.58,125.17l.92-.53,3.14,2.77-.82-4.11.92-.53,2.91,5-.6.35-2.56-4.44.83,4.14-.61.36-3.18-2.79,2.56,4.44-.59.34Z" transform="translate(-1.05 -9.93)"/><path d="M484.81,121.86l.56-.32.46.79-.56.32Zm.85,1.48.56-.32,2.19,3.79-.56.32Z" transform="translate(-1.05 -9.93)"/><path d="M491.1,122.2l1.32,2.29-.56.33-1.31-2.27a1.67,1.67,0,0,0-.66-.7.78.78,0,0,0-.72.06,1,1,0,0,0-.53.74,1.51,1.51,0,0,0,.25,1l1.23,2.15-.56.32-2.19-3.79.57-.32.34.59a1.74,1.74,0,0,1,.17-.79,1.38,1.38,0,0,1,.54-.53,1.19,1.19,0,0,1,1.12-.11A2.24,2.24,0,0,1,491.1,122.2Z" transform="translate(-1.05 -9.93)"/><path d="M493.31,118.19l1.08,1.88,1.7-1,.33.58-1.69,1,1.08,1.88-.51.3-1.08-1.89-1.7,1-.33-.57,1.69-1-1.08-1.89Z" transform="translate(-1.05 -9.93)"/><path d="M495.87,115.77l.91-.53,3.15,2.76-.82-4.1.91-.53,2.92,5-.6.34-2.56-4.43.83,4.14-.62.35L496.82,116l2.56,4.43-.6.35Z" transform="translate(-1.05 -9.93)"/><path d="M505.55,114l1.25,2.16-.56.32-.33-.57a1.41,1.41,0,0,1-.18.78,1.61,1.61,0,0,1-.61.57,1.26,1.26,0,0,1-1,.15,1.42,1.42,0,0,1-.81-.69,1.38,1.38,0,0,1-.18-1.19,2.12,2.12,0,0,1,1-1l.78-.45,0-.06a1,1,0,0,0-.64-.52,1.15,1.15,0,0,0-.85.18,2.63,2.63,0,0,0-.53.4,3.15,3.15,0,0,0-.4.54l-.33-.57a3.72,3.72,0,0,1,.49-.54,2.36,2.36,0,0,1,.52-.39,1.59,1.59,0,0,1,1.35-.22A2.26,2.26,0,0,1,505.55,114Zm-1,.9a2.14,2.14,0,0,0-.85.71.75.75,0,0,0,.08.74.77.77,0,0,0,1.15.3,1,1,0,0,0,.53-.8,1.76,1.76,0,0,0-.28-1.14l-.08-.13Z" transform="translate(-1.05 -9.93)"/><path d="M508.6,110.1l-.17,2.55,2.42,1.2-.66.38-1.85-.92-.13,2.07-.66.38.18-2.75-2.26-1.11.66-.38,1.69.83.12-1.87Z" transform="translate(-1.05 -9.93)"/><path d="M513.66,112.09l-.36-.62a2.8,2.8,0,0,0,.58-.09,2,2,0,0,0,.5-.2,1.25,1.25,0,0,0,.67-1,3,3,0,0,0-.44-1.59,1.53,1.53,0,0,1-.18.71,1.62,1.62,0,0,1-.51.5,1.56,1.56,0,0,1-1.35.16,2.46,2.46,0,0,1-1.43-2.51,1.63,1.63,0,0,1,.83-1.1,1.52,1.52,0,0,1,1.59,0,4.31,4.31,0,0,1,1.55,1.71,3.75,3.75,0,0,1,.59,2.2,1.89,1.89,0,0,1-1,1.51,2.81,2.81,0,0,1-.5.22A4.52,4.52,0,0,1,513.66,112.09Zm0-2.85a.9.9,0,0,0,.48-.69,1.61,1.61,0,0,0-.25-1,1.64,1.64,0,0,0-.74-.72.93.93,0,0,0-.84.07.9.9,0,0,0-.48.69,1.58,1.58,0,0,0,.26,1,1.62,1.62,0,0,0,.74.73A.91.91,0,0,0,513.64,109.24Z" transform="translate(-1.05 -9.93)"/><path d="M438,135.5h1.08l2.62,5.49V135.5h.77v6.56h-1.08l-2.61-5.49v5.49H438Z" transform="translate(-1.05 -9.93)"/><path d="M447.52,139.25v2.81h-.73v-.74a1.72,1.72,0,0,1-.62.66,1.8,1.8,0,0,1-.91.21,1.43,1.43,0,0,1-1.08-.42,1.6,1.6,0,0,1-.4-1.14,1.56,1.56,0,0,1,.5-1.25,2.26,2.26,0,0,1,1.49-.43h1v-.07a1.13,1.13,0,0,0-.33-.87,1.33,1.33,0,0,0-.93-.3,2.57,2.57,0,0,0-.73.1,3.08,3.08,0,0,0-.7.3v-.75a4.39,4.39,0,0,1,.78-.25,3.1,3.1,0,0,1,.73-.09,1.8,1.8,0,0,1,1.44.56A2.54,2.54,0,0,1,447.52,139.25Zm-1.45.34a2.35,2.35,0,0,0-1.22.22.85.85,0,0,0-.34.77.92.92,0,0,0,.25.68.94.94,0,0,0,.7.25,1.19,1.19,0,0,0,1-.47,2.06,2.06,0,0,0,.36-1.27v-.18Z" transform="translate(-1.05 -9.93)"/><path d="M449.74,135.74v1.4h1.5v.63h-1.5v2.67a1.28,1.28,0,0,0,.15.77.77.77,0,0,0,.6.18h.75v.67h-.75a1.5,1.5,0,0,1-1.16-.35,1.85,1.85,0,0,1-.32-1.27v-2.67h-.54v-.63H449v-1.4Z" transform="translate(-1.05 -9.93)"/><path d="M452.12,140.12v-3h.72v3a1.81,1.81,0,0,0,.25,1,.84.84,0,0,0,.73.35,1.15,1.15,0,0,0,.94-.42,1.8,1.8,0,0,0,.34-1.14v-2.79h.73v4.92h-.73v-.75a1.81,1.81,0,0,1-.62.66,1.45,1.45,0,0,1-.81.22,1.37,1.37,0,0,1-1.16-.53A2.55,2.55,0,0,1,452.12,140.12Z" transform="translate(-1.05 -9.93)"/><path d="M459.89,137.9a.66.66,0,0,0-.27-.12,1,1,0,0,0-.31,0,1.1,1.1,0,0,0-.95.45,2.12,2.12,0,0,0-.33,1.28v2.59h-.74v-4.92H458v.76a1.59,1.59,0,0,1,.59-.66,1.72,1.72,0,0,1,.9-.22h.16l.21,0Z" transform="translate(-1.05 -9.93)"/><path d="M464.11,139.25v2.81h-.73v-.74a1.78,1.78,0,0,1-.61.66,1.83,1.83,0,0,1-.91.21,1.44,1.44,0,0,1-1.09-.42,1.64,1.64,0,0,1-.39-1.14,1.55,1.55,0,0,1,.49-1.25,2.29,2.29,0,0,1,1.5-.43h1v-.07a1.1,1.1,0,0,0-.33-.87,1.29,1.29,0,0,0-.92-.3,2.64,2.64,0,0,0-.74.1,3,3,0,0,0-.69.3v-.75a4.05,4.05,0,0,1,.77-.25,3.1,3.1,0,0,1,.73-.09,1.8,1.8,0,0,1,1.44.56A2.48,2.48,0,0,1,464.11,139.25Zm-1.45.34a2.39,2.39,0,0,0-1.22.22.85.85,0,0,0-.34.77.92.92,0,0,0,.25.68,1,1,0,0,0,.7.25,1.18,1.18,0,0,0,1-.47,2.06,2.06,0,0,0,.36-1.27v-.18Z" transform="translate(-1.05 -9.93)"/><path d="M465.61,135.22h.73v6.84h-.73Z" transform="translate(-1.05 -9.93)"/><g class="cls-7"><line class="cls-5" x1="404.34" y1="55.56" x2="404.34" y2="41.59"/><line class="cls-5" x1="435.42" y1="40.82" x2="435.42" y2="29.02"/><line class="cls-5" x1="466.49" y1="38.52" x2="466.49" y2="22.45"/><line class="cls-5" x1="497.57" y1="23.99" x2="497.57" y2="12.62"/></g><line class="cls-6" x1="386" y1="87.7" x2="515.91" y2="87.7"/><path d="M223.53,77.43a1.48,1.48,0,0,1,1.35.78,5.73,5.73,0,0,1,0,4.5,1.57,1.57,0,0,1-2.7,0,5.73,5.73,0,0,1,0-4.5A1.48,1.48,0,0,1,223.53,77.43Zm0,.63a.88.88,0,0,0-.82.6,5.93,5.93,0,0,0,0,3.6.88.88,0,0,0,.82.6.89.89,0,0,0,.83-.6,6.14,6.14,0,0,0,0-3.6A.89.89,0,0,0,223.53,78.06Z" transform="translate(-1.05 -9.93)"/><path d="M226.59,82.38h.74v1h-.74Z" transform="translate(-1.05 -9.93)"/><path d="M231.89,77.67v.72a2.45,2.45,0,0,0-.54-.22,2,2,0,0,0-.54-.07,1.22,1.22,0,0,0-1.07.52,3,3,0,0,0-.42,1.6,1.37,1.37,0,0,1,.52-.52,1.3,1.3,0,0,1,.68-.18,1.54,1.54,0,0,1,1.25.53,2.48,2.48,0,0,1,0,2.89,1.63,1.63,0,0,1-1.28.54,1.53,1.53,0,0,1-1.39-.77,4.33,4.33,0,0,1-.48-2.25,3.7,3.7,0,0,1,.59-2.2,1.85,1.85,0,0,1,1.58-.83,2.48,2.48,0,0,1,.54.06A3.39,3.39,0,0,1,231.89,77.67Zm-1.41,2.47a.92.92,0,0,0-.76.36,1.67,1.67,0,0,0-.28,1,1.62,1.62,0,0,0,.28,1,1,1,0,0,0,1.52,0,1.55,1.55,0,0,0,.28-1,1.6,1.6,0,0,0-.28-1A.92.92,0,0,0,230.48,80.14Z" transform="translate(-1.05 -9.93)"/><path d="M223.53,60.45a1.48,1.48,0,0,1,1.35.78,5.73,5.73,0,0,1,0,4.5,1.57,1.57,0,0,1-2.7,0,5.73,5.73,0,0,1,0-4.5A1.48,1.48,0,0,1,223.53,60.45Zm0,.63a.88.88,0,0,0-.82.6,5.93,5.93,0,0,0,0,3.6.88.88,0,0,0,.82.6.89.89,0,0,0,.83-.6,6.14,6.14,0,0,0,0-3.6A.89.89,0,0,0,223.53,61.08Z" transform="translate(-1.05 -9.93)"/><path d="M226.59,65.4h.74v1h-.74Z" transform="translate(-1.05 -9.93)"/><path d="M228.69,60.56h3.38v.34l-1.91,5.49h-.73l1.78-5.17h-2.52Z" transform="translate(-1.05 -9.93)"/><path d="M223.53,42.87a1.49,1.49,0,0,1,1.35.77,4.45,4.45,0,0,1,.46,2.25,4.4,4.4,0,0,1-.46,2.25,1.56,1.56,0,0,1-2.7,0,4.4,4.4,0,0,1-.46-2.25,4.45,4.45,0,0,1,.46-2.25A1.49,1.49,0,0,1,223.53,42.87Zm0,.62a.88.88,0,0,0-.82.6,4.39,4.39,0,0,0-.28,1.8,4.39,4.39,0,0,0,.28,1.8.88.88,0,0,0,.82.6.89.89,0,0,0,.83-.6,4.59,4.59,0,0,0,.27-1.8,4.59,4.59,0,0,0-.27-1.8A.89.89,0,0,0,223.53,43.49Z" transform="translate(-1.05 -9.93)"/><path d="M226.59,47.81h.74v1h-.74Z" transform="translate(-1.05 -9.93)"/><path d="M229.68,45.7a1.26,1.26,0,0,1-.71-.47,1.58,1.58,0,0,1,.2-2,2.08,2.08,0,0,1,2.45,0,1.58,1.58,0,0,1,.2,2,1.26,1.26,0,0,1-.71.47,1.39,1.39,0,0,1,.8.52,1.54,1.54,0,0,1,.28.94,1.72,1.72,0,0,1-.46,1.3,2.17,2.17,0,0,1-2.67,0,1.72,1.72,0,0,1-.47-1.3,1.55,1.55,0,0,1,.29-.94A1.43,1.43,0,0,1,229.68,45.7Zm.71.33a1,1,0,0,0-.79.31,1.32,1.32,0,0,0,0,1.65,1.2,1.2,0,0,0,1.59,0,1.12,1.12,0,0,0,.29-.83,1.1,1.1,0,0,0-.29-.82A1,1,0,0,0,230.39,46Zm-1-1.58a1,1,0,0,0,.25.71,1.15,1.15,0,0,0,1.43,0,1.09,1.09,0,0,0,0-1.41,1.11,1.11,0,0,0-1.43,0A.94.94,0,0,0,229.43,44.45Z" transform="translate(-1.05 -9.93)"/><path d="M223.53,26.5a1.47,1.47,0,0,1,1.35.77,4.45,4.45,0,0,1,.46,2.25,4.45,4.45,0,0,1-.46,2.25,1.56,1.56,0,0,1-2.7,0,4.45,4.45,0,0,1-.46-2.25,4.45,4.45,0,0,1,.46-2.25A1.47,1.47,0,0,1,223.53,26.5Zm0,.62a.88.88,0,0,0-.82.6,4.39,4.39,0,0,0-.28,1.8,4.39,4.39,0,0,0,.28,1.8.88.88,0,0,0,.82.6.89.89,0,0,0,.83-.6,4.59,4.59,0,0,0,.27-1.8,4.59,4.59,0,0,0-.27-1.8A.89.89,0,0,0,223.53,27.12Z" transform="translate(-1.05 -9.93)"/><path d="M226.59,31.44h.74v1h-.74Z" transform="translate(-1.05 -9.93)"/><path d="M228.89,32.31v-.72a2.34,2.34,0,0,0,.55.22,2,2,0,0,0,.54.07,1.24,1.24,0,0,0,1.07-.52,3,3,0,0,0,.42-1.6,1.34,1.34,0,0,1-.51.52,1.37,1.37,0,0,1-.69.18,1.57,1.57,0,0,1-1.25-.53,2.14,2.14,0,0,1-.46-1.45A2.09,2.09,0,0,1,229,27a1.61,1.61,0,0,1,1.27-.54,1.53,1.53,0,0,1,1.39.77,4.33,4.33,0,0,1,.48,2.25,3.7,3.7,0,0,1-.59,2.2,1.85,1.85,0,0,1-1.58.83,2.64,2.64,0,0,1-.55-.06A3.71,3.71,0,0,1,228.89,32.31Zm1.42-2.47a.92.92,0,0,0,.76-.36,1.67,1.67,0,0,0,.28-1,1.62,1.62,0,0,0-.28-1,1,1,0,0,0-1.52,0,1.62,1.62,0,0,0-.28,1,1.67,1.67,0,0,0,.28,1A.92.92,0,0,0,230.31,29.84Z" transform="translate(-1.05 -9.93)"/><path d="M229,15.1h1.16V10.65l-1.27.28v-.72l1.26-.28h.71V15.1H232v.66h-3Z" transform="translate(-1.05 -9.93)"/><path d="M195.92,100.72v-2a2.26,2.26,0,0,1,.55-1.66,2.6,2.6,0,0,1,3.25,0,2.27,2.27,0,0,1,.56,1.66v1.12h2.93v.88Zm.81-.88h2.74V98.72a1.27,1.27,0,0,0-.36-1,1.69,1.69,0,0,0-2,0,1.3,1.3,0,0,0-.35,1Z" transform="translate(-1.05 -9.93)"/><path d="M198.58,92.48a1,1,0,0,0-.13.3,1.29,1.29,0,0,0,0,.35,1.24,1.24,0,0,0,.49,1.06,2.4,2.4,0,0,0,1.42.36h2.89v.82h-5.47v-.82h.85a1.72,1.72,0,0,1-.74-.66,2,2,0,0,1-.25-1,1.37,1.37,0,0,1,0-.19l0-.22Z" transform="translate(-1.05 -9.93)"/><path d="M197.6,89.73a2,2,0,0,1,.77-1.66,4,4,0,0,1,4.21,0,2,2,0,0,1,.77,1.66,2,2,0,0,1-.77,1.66,4,4,0,0,1-4.21,0A2,2,0,0,1,197.6,89.73Zm.77,0a1.18,1.18,0,0,0,.56,1,2.78,2.78,0,0,0,1.55.38,2.74,2.74,0,0,0,1.54-.38,1.21,1.21,0,0,0,0-2.05,3.31,3.31,0,0,0-3.08,0A1.16,1.16,0,0,0,198.37,89.73Z" transform="translate(-1.05 -9.93)"/><path d="M202.39,85.35h2.9v.82h-7.55v-.82h.83a1.78,1.78,0,0,1-.73-.64,1.79,1.79,0,0,1,.56-2.39,4.14,4.14,0,0,1,4.16,0,1.8,1.8,0,0,1,.55,2.39A1.81,1.81,0,0,1,202.39,85.35Zm-1.91-2.75a2.88,2.88,0,0,0-1.56.37,1.15,1.15,0,0,0-.56,1,1.16,1.16,0,0,0,.56,1A3.54,3.54,0,0,0,202,85a1.18,1.18,0,0,0,0-2A2.86,2.86,0,0,0,200.48,82.6Z" transform="translate(-1.05 -9.93)"/><path d="M197.6,78.52a2,2,0,0,1,.77-1.66,4,4,0,0,1,4.21,0,2.16,2.16,0,0,1,0,3.31,4,4,0,0,1-4.21,0A2,2,0,0,1,197.6,78.52Zm.77,0a1.2,1.2,0,0,0,.56,1,2.78,2.78,0,0,0,1.55.37,2.74,2.74,0,0,0,1.54-.37,1.22,1.22,0,0,0,0-2.06,3.39,3.39,0,0,0-3.08,0A1.17,1.17,0,0,0,198.37,78.52Z" transform="translate(-1.05 -9.93)"/><path d="M198.58,72.07a1.08,1.08,0,0,0-.13.29,1.37,1.37,0,0,0,0,.36,1.21,1.21,0,0,0,.49,1,2.33,2.33,0,0,0,1.42.37h2.89V75h-5.47v-.81h.85a1.68,1.68,0,0,1-.74-.67,1.91,1.91,0,0,1-.25-1,1.24,1.24,0,0,1,0-.18l0-.23Z" transform="translate(-1.05 -9.93)"/><path d="M196.18,70.42h1.56V68.76h.7v1.66h3a1.45,1.45,0,0,0,.86-.16.86.86,0,0,0,.19-.67v-.83h.76v.83a1.71,1.71,0,0,1-.39,1.29,2.11,2.11,0,0,1-1.42.36h-3v.59h-.7v-.59h-1.56Z" transform="translate(-1.05 -9.93)"/><path d="M195.61,67.7v-.81h1.14v.81Zm2.13,0v-.81h5.47v.81Z" transform="translate(-1.05 -9.93)"/><path d="M197.6,63.29a2,2,0,0,1,.77-1.66,4,4,0,0,1,4.21,0,2,2,0,0,1,.77,1.66,2,2,0,0,1-.77,1.66,4,4,0,0,1-4.21,0A2,2,0,0,1,197.6,63.29Zm.77,0a1.18,1.18,0,0,0,.56,1,2.78,2.78,0,0,0,1.55.38,2.74,2.74,0,0,0,1.54-.38,1.21,1.21,0,0,0,0-2,3.31,3.31,0,0,0-3.08,0A1.16,1.16,0,0,0,198.37,63.29Z" transform="translate(-1.05 -9.93)"/><path d="M199.9,55.6h3.31v.81h-3.28a2,2,0,0,0-1.16.28.94.94,0,0,0-.38.81,1.24,1.24,0,0,0,.46,1,1.9,1.9,0,0,0,1.26.38h3.1v.82h-5.47v-.82h.85a2,2,0,0,1-.74-.68,1.7,1.7,0,0,1-.25-.91,1.5,1.5,0,0,1,.59-1.28A2.84,2.84,0,0,1,199.9,55.6Z" transform="translate(-1.05 -9.93)"/><path d="M196.48,46.19h1a3.27,3.27,0,0,0-.7,1,2.57,2.57,0,0,0-.23,1.07,2.08,2.08,0,0,0,.77,1.73,4.42,4.42,0,0,0,4.41,0,2.08,2.08,0,0,0,.77-1.73,2.57,2.57,0,0,0-.23-1.07,3.27,3.27,0,0,0-.7-1h1a3.47,3.47,0,0,1,.53,1,3.38,3.38,0,0,1,.18,1.1,2.9,2.9,0,0,1-1,2.35,4.87,4.87,0,0,1-5.53,0,2.9,2.9,0,0,1-1-2.35,3.4,3.4,0,0,1,.18-1.11A3.26,3.26,0,0,1,196.48,46.19Z" transform="translate(-1.05 -9.93)"/><path d="M197.6,43a2,2,0,0,1,.77-1.66,4,4,0,0,1,4.21,0,2.16,2.16,0,0,1,0,3.31,4,4,0,0,1-4.21,0A2,2,0,0,1,197.6,43Zm.77,0a1.18,1.18,0,0,0,.56,1,2.69,2.69,0,0,0,1.55.38A2.74,2.74,0,0,0,202,44a1.22,1.22,0,0,0,0-2.06,3.31,3.31,0,0,0-3.08,0A1.17,1.17,0,0,0,198.37,43Z" transform="translate(-1.05 -9.93)"/><path d="M198.58,36.5a1.08,1.08,0,0,0-.13.29,1.37,1.37,0,0,0,0,.36,1.23,1.23,0,0,0,.49,1.05,2.4,2.4,0,0,0,1.42.37h2.89v.81h-5.47v-.81h.85a1.68,1.68,0,0,1-.74-.67,1.91,1.91,0,0,1-.25-1,1.24,1.24,0,0,1,0-.18l0-.23Z" transform="translate(-1.05 -9.93)"/><path d="M198.58,32.8a1,1,0,0,0-.13.3,1.25,1.25,0,0,0,0,.35,1.21,1.21,0,0,0,.49,1,2.33,2.33,0,0,0,1.42.37h2.89v.82h-5.47v-.82h.85a1.72,1.72,0,0,1-.74-.66,2,2,0,0,1-.25-1,1.41,1.41,0,0,1,0-.18c0-.07,0-.14,0-.23Z" transform="translate(-1.05 -9.93)"/><path d="M200.25,27.75h.44v3.72A2.23,2.23,0,0,0,202.1,31a1.64,1.64,0,0,0,.49-1.25,3.45,3.45,0,0,0-.13-.91,3.83,3.83,0,0,0-.38-.86h.85a4.69,4.69,0,0,1,.31.89,4.06,4.06,0,0,1,.11.92,2.42,2.42,0,0,1-.76,1.87,3,3,0,0,1-2.07.69,3.23,3.23,0,0,1-2.13-.66,2.17,2.17,0,0,1-.79-1.76,1.93,1.93,0,0,1,.71-1.57A3,3,0,0,1,200.25,27.75Zm-.27.81a1.78,1.78,0,0,0-1.17.37,1.15,1.15,0,0,0-.44.95,1.44,1.44,0,0,0,.42,1.09,1.88,1.88,0,0,0,1.2.47Z" transform="translate(-1.05 -9.93)"/><path d="M198,22.88h.84a3,3,0,0,0-.32.68,2.42,2.42,0,0,0-.1.7,1.47,1.47,0,0,0,.55,1.23,3,3,0,0,0,3.11,0,1.48,1.48,0,0,0,.56-1.23,2.43,2.43,0,0,0-.11-.7,2.93,2.93,0,0,0-.31-.68H203a3.46,3.46,0,0,1,.26.7,3.19,3.19,0,0,1,.09.77,2.17,2.17,0,0,1-.78,1.76,3.67,3.67,0,0,1-4.2,0,2.28,2.28,0,0,1-.77-1.81,2.92,2.92,0,0,1,.09-.73A2.88,2.88,0,0,1,198,22.88Z" transform="translate(-1.05 -9.93)"/><path d="M196.18,20.67h1.56V19h.7v1.66h3a1.45,1.45,0,0,0,.86-.16.86.86,0,0,0,.19-.67V19h.76v.83a1.71,1.71,0,0,1-.39,1.29,2.11,2.11,0,0,1-1.42.36h-3v.59h-.7v-.59h-1.56Z" transform="translate(-1.05 -9.93)"/><g class="cls-9"><rect class="cls-3" x="46.19" y="52.89" width="22.66" height="119.7"/></g><g class="cls-9"><rect class="cls-3" x="74.52" y="54.72" width="22.66" height="117.88"/></g><line x1="57.52" y1="87.7" x2="57.52" y2="91.2"/><line class="cls-4" x1="57.52" y1="87.7" x2="57.52" y2="91.2"/><path d="M46,117.65,48.91,116l.33.57L47,117.87l.86,1.49L50,118.11l.33.58-2.17,1.25,1.06,1.83,2.31-1.34.34.58L49,122.7Z" transform="translate(-1.05 -9.93)"/><path d="M53.52,115l-.17,2.56,2.42,1.2-.66.38-1.85-.92-.14,2.06-.66.38.18-2.74-2.25-1.11.66-.38,1.68.83.12-1.88Z" transform="translate(-1.05 -9.93)"/><path d="M56.77,117.43l1.16,2-.56.32-3-5.23.56-.32.33.57a1.44,1.44,0,0,1,.16-.76,1.41,1.41,0,0,1,.55-.53,1.37,1.37,0,0,1,1.32,0,2.8,2.8,0,0,1,1.22,1.22,2.75,2.75,0,0,1,.45,1.66,1.36,1.36,0,0,1-.69,1.13,1.33,1.33,0,0,1-.74.21A1.44,1.44,0,0,1,56.77,117.43ZM57.91,115a2.32,2.32,0,0,0-.87-.93,1,1,0,0,0-1.4.81A2.18,2.18,0,0,0,56,116.1a2.29,2.29,0,0,0,.87.94.93.93,0,0,0,.93,0,.92.92,0,0,0,.47-.79A2.23,2.23,0,0,0,57.91,115Z" transform="translate(-1.05 -9.93)"/><path d="M62.25,112.29l.17.3-2.57,1.49a1.7,1.7,0,0,0,.91.78,1.32,1.32,0,0,0,1.06-.16,2.84,2.84,0,0,0,1-1.07l.34.59a4.55,4.55,0,0,1-.49.58,4.19,4.19,0,0,1-.6.44,1.89,1.89,0,0,1-1.6.22,2.38,2.38,0,0,1-1.3-1.15,2.59,2.59,0,0,1-.4-1.74,1.71,1.71,0,0,1,.9-1.25,1.55,1.55,0,0,1,1.38-.14A2.47,2.47,0,0,1,62.25,112.29Zm-.67.14a1.46,1.46,0,0,0-.73-.67.94.94,0,0,0-.83.08,1.17,1.17,0,0,0-.59.73,1.54,1.54,0,0,0,.16,1Z" transform="translate(-1.05 -9.93)"/><path d="M64.48,109.46a1.09,1.09,0,0,0-.26,0,1.1,1.1,0,0,0-.79.88,1.85,1.85,0,0,0,.31,1.13l1.15,2-.56.32L62.14,110l.57-.32.34.59a1.41,1.41,0,0,1,.16-.78,1.62,1.62,0,0,1,.59-.57l.13-.06.17-.07Z" transform="translate(-1.05 -9.93)"/><path d="M64.66,107.14l.62,1.08,1.15-.67.28.49-1.15.66,1.19,2.06c.18.31.33.49.45.53a.73.73,0,0,0,.54-.13l.58-.34.3.52-.58.34a1.33,1.33,0,0,1-1.05.24,1.73,1.73,0,0,1-.81-.83L65,109l-.4.24-.28-.49.41-.23-.63-1.08Z" transform="translate(-1.05 -9.93)"/><line x1="85.85" y1="87.7" x2="85.85" y2="91.2"/><line class="cls-4" x1="85.85" y1="87.7" x2="85.85" y2="91.2"/><path d="M79.63,111.58l.61-.36,2.59,4.48L85,114.42l.33.57-2.83,1.64Z" transform="translate(-1.05 -9.93)"/><path d="M87.41,110.94l1.25,2.16-.57.32-.33-.57a1.41,1.41,0,0,1-.18.78,1.61,1.61,0,0,1-.61.57,1.26,1.26,0,0,1-1,.15,1.42,1.42,0,0,1-.81-.69,1.38,1.38,0,0,1-.17-1.19,2,2,0,0,1,1-1l.78-.45,0-.06a1,1,0,0,0-.64-.52,1.16,1.16,0,0,0-.85.18,2.25,2.25,0,0,0-.52.4,2.36,2.36,0,0,0-.4.54l-.34-.57a3.72,3.72,0,0,1,.49-.54,2.36,2.36,0,0,1,.52-.39,1.61,1.61,0,0,1,1.36-.22A2.34,2.34,0,0,1,87.41,110.94Zm-1,.9a2.1,2.1,0,0,0-.84.71.74.74,0,0,0,.07.74.88.88,0,0,0,.5.42.86.86,0,0,0,.65-.12,1,1,0,0,0,.54-.8,1.83,1.83,0,0,0-.29-1.14l-.08-.13Z" transform="translate(-1.05 -9.93)"/><path d="M91.43,112a2.74,2.74,0,0,1,0,1.15,1,1,0,0,1-.49.56l-.44.26-.3-.52.32-.19a.57.57,0,0,0,.29-.33,1.85,1.85,0,0,0,0-.74l-.06-.34-3.53-2.94.59-.34,2.78,2.35-.65-3.58.6-.34Z" transform="translate(-1.05 -9.93)"/><line x1="43.64" y1="87.7" x2="40.14" y2="87.7"/><line class="cls-4" x1="43.64" y1="87.7" x2="40.14" y2="87.7"/><line x1="43.64" y1="70.72" x2="40.14" y2="70.72"/><line class="cls-4" x1="43.64" y1="70.72" x2="40.14" y2="70.72"/><line x1="43.64" y1="53.74" x2="40.14" y2="53.74"/><line class="cls-4" x1="43.64" y1="53.74" x2="40.14" y2="53.74"/><line x1="43.64" y1="36.76" x2="40.14" y2="36.76"/><line class="cls-4" x1="43.64" y1="36.76" x2="40.14" y2="36.76"/><line x1="43.64" y1="19.78" x2="40.14" y2="19.78"/><line class="cls-4" x1="43.64" y1="19.78" x2="40.14" y2="19.78"/><line x1="43.64" y1="2.8" x2="40.14" y2="2.8"/><line class="cls-4" x1="43.64" y1="2.8" x2="40.14" y2="2.8"/><g class="cls-9"><line class="cls-5" x1="57.52" y1="57.67" x2="57.52" y2="48.12"/><line class="cls-5" x1="85.85" y1="59.21" x2="85.85" y2="50.23"/></g><g class="cls-9"><polyline class="cls-10" points="57.52 44.2 57.52 40.28 85.85 40.28 85.85 44.2"/></g><line class="cls-6" x1="43.64" y1="87.7" x2="43.64" y2="2.8"/><line class="cls-6" x1="43.64" y1="87.7" x2="99.73" y2="87.7"/><path d="M72.5,45.9v2.64h-.72V45.92a1.45,1.45,0,0,0-.25-.93.85.85,0,0,0-.72-.31,1.2,1.2,0,0,0-.92.37,1.48,1.48,0,0,0-.34,1v2.48h-.72V44.16h.72v.68a1.89,1.89,0,0,1,.61-.59,1.62,1.62,0,0,1,.81-.19,1.4,1.4,0,0,1,1.14.46A2.1,2.1,0,0,1,72.5,45.9Z" transform="translate(-1.05 -9.93)"/><path d="M76.72,44.29V45a3.07,3.07,0,0,0-.64-.23,2.46,2.46,0,0,0-.67-.08,1.59,1.59,0,0,0-.81.16.55.55,0,0,0-.27.49.48.48,0,0,0,.2.4,2.37,2.37,0,0,0,.77.27l.24.05a2.32,2.32,0,0,1,1.09.47,1.08,1.08,0,0,1,.32.83,1.15,1.15,0,0,1-.48,1,2.24,2.24,0,0,1-1.33.35,3.83,3.83,0,0,1-.73-.07,5.5,5.5,0,0,1-.8-.2v-.75a3.89,3.89,0,0,0,.78.32,3.46,3.46,0,0,0,.77.1,1.5,1.5,0,0,0,.78-.17.56.56,0,0,0,.27-.5.52.52,0,0,0-.19-.44,2.32,2.32,0,0,0-.87-.31l-.25-.05a1.91,1.91,0,0,1-1-.44,1,1,0,0,1-.3-.79,1.15,1.15,0,0,1,.44-1,2,2,0,0,1,1.24-.33,4.56,4.56,0,0,1,.75.06A2.7,2.7,0,0,1,76.72,44.29Z" transform="translate(-1.05 -9.93)"/><g class="cls-11"><rect class="cls-8" x="122.62" y="31.03" width="22.66" height="141.57"/></g><g class="cls-11"><rect class="cls-8" x="150.95" y="34.64" width="22.66" height="137.96"/></g><line x1="133.95" y1="87.7" x2="133.95" y2="91.2"/><line class="cls-4" x1="133.95" y1="87.7" x2="133.95" y2="91.2"/><path d="M122.47,117.65l2.87-1.66.34.57-2.26,1.31.86,1.49,2.17-1.25.33.58-2.16,1.25,1,1.83,2.32-1.34.33.57-2.93,1.7Z" transform="translate(-1.05 -9.93)"/><path d="M130,115l-.17,2.56,2.42,1.19-.66.39-1.85-.92-.14,2.06-.66.38.19-2.75-2.26-1.1.66-.38,1.68.83.13-1.88Z" transform="translate(-1.05 -9.93)"/><path d="M133.2,117.43l1.16,2-.56.32-3-5.23.56-.32.34.57a1.35,1.35,0,0,1,.15-.76,1.41,1.41,0,0,1,.55-.53,1.39,1.39,0,0,1,1.33,0,2.86,2.86,0,0,1,1.22,1.22,2.81,2.81,0,0,1,.44,1.66,1.36,1.36,0,0,1-.69,1.13,1.33,1.33,0,0,1-.74.21A1.47,1.47,0,0,1,133.2,117.43Zm1.14-2.43a2.32,2.32,0,0,0-.87-.93.92.92,0,0,0-.92,0,.93.93,0,0,0-.48.8,2.26,2.26,0,0,0,.37,1.22,2.31,2.31,0,0,0,.88.94.92.92,0,0,0,.92,0,.9.9,0,0,0,.47-.79A2.23,2.23,0,0,0,134.34,115Z" transform="translate(-1.05 -9.93)"/><path d="M138.68,112.29l.18.3-2.58,1.49a1.73,1.73,0,0,0,.91.78,1.31,1.31,0,0,0,1.07-.17,2.27,2.27,0,0,0,.57-.45,2.61,2.61,0,0,0,.45-.61l.34.59a3.86,3.86,0,0,1-.49.58,3.31,3.31,0,0,1-.6.44,1.89,1.89,0,0,1-1.6.22,2.42,2.42,0,0,1-1.3-1.15,2.59,2.59,0,0,1-.4-1.74,1.7,1.7,0,0,1,.91-1.25,1.52,1.52,0,0,1,1.37-.14A2.47,2.47,0,0,1,138.68,112.29Zm-.67.14a1.48,1.48,0,0,0-.72-.67,1,1,0,0,0-.84.08,1.17,1.17,0,0,0-.59.73,1.54,1.54,0,0,0,.16,1Z" transform="translate(-1.05 -9.93)"/><path d="M140.91,109.46a1.15,1.15,0,0,0-.26,0,1.12,1.12,0,0,0-.26.11,1,1,0,0,0-.53.77,1.92,1.92,0,0,0,.31,1.13l1.16,2-.57.33L138.57,110l.57-.32.34.59a1.41,1.41,0,0,1,.16-.78,1.62,1.62,0,0,1,.59-.57l.14-.06.17-.07Z" transform="translate(-1.05 -9.93)"/><path d="M141.09,107.14l.62,1.08,1.16-.67.28.49-1.16.66,1.19,2.06c.18.31.33.49.46.53a.71.71,0,0,0,.53-.13l.58-.34.3.52-.57.34a1.34,1.34,0,0,1-1,.24,1.7,1.7,0,0,1-.82-.83L141.43,109l-.41.24-.28-.49.41-.23-.62-1.08Z" transform="translate(-1.05 -9.93)"/><line x1="162.28" y1="87.7" x2="162.28" y2="91.2"/><line class="cls-4" x1="162.28" y1="87.7" x2="162.28" y2="91.2"/><path d="M156.06,111.58l.61-.36,2.59,4.48,2.21-1.28.33.57L159,116.63Z" transform="translate(-1.05 -9.93)"/><path d="M163.84,110.94l1.25,2.16-.56.32-.34-.57a1.41,1.41,0,0,1-.18.78,1.58,1.58,0,0,1-.6.57,1.28,1.28,0,0,1-1,.15,1.6,1.6,0,0,1-1-1.88,2,2,0,0,1,1-1l.79-.45,0-.06a1,1,0,0,0-.64-.52,1.16,1.16,0,0,0-.85.18,2.25,2.25,0,0,0-.52.4,2.36,2.36,0,0,0-.4.54l-.33-.57a3.18,3.18,0,0,1,.48-.54,2.41,2.41,0,0,1,.53-.39,1.58,1.58,0,0,1,1.35-.22A2.26,2.26,0,0,1,163.84,110.94Zm-1,.9a2.17,2.17,0,0,0-.84.71.75.75,0,0,0,.08.74.82.82,0,0,0,.5.42.85.85,0,0,0,.64-.12,1,1,0,0,0,.54-.8,1.89,1.89,0,0,0-.28-1.14l-.08-.13Z" transform="translate(-1.05 -9.93)"/><path d="M167.86,112a2.74,2.74,0,0,1,0,1.15,1,1,0,0,1-.49.56l-.44.26-.3-.52.33-.19a.59.59,0,0,0,.28-.33,1.79,1.79,0,0,0,0-.74l-.07-.34-3.53-2.94.59-.34,2.78,2.35-.65-3.58.6-.34Z" transform="translate(-1.05 -9.93)"/><g class="cls-11"><line class="cls-5" x1="133.95" y1="36.44" x2="133.95" y2="25.63"/><line class="cls-5" x1="162.28" y1="39.95" x2="162.28" y2="29.34"/></g><g class="cls-11"><polyline class="cls-10" points="133.95 22.7 133.95 19.77 162.28 19.77 162.28 22.7"/></g><line class="cls-6" x1="120.07" y1="87.7" x2="176.16" y2="87.7"/><path d="M148.93,25.39V28h-.72V25.41a1.52,1.52,0,0,0-.24-.93.91.91,0,0,0-.73-.31,1.2,1.2,0,0,0-.92.37,1.49,1.49,0,0,0-.33,1V28h-.73V23.65H146v.68a1.77,1.77,0,0,1,.6-.59,1.64,1.64,0,0,1,.81-.19,1.4,1.4,0,0,1,1.14.46A2.12,2.12,0,0,1,148.93,25.39Z" transform="translate(-1.05 -9.93)"/><path d="M153.15,23.78v.68a2.8,2.8,0,0,0-.63-.23,3.08,3.08,0,0,0-.68-.08,1.59,1.59,0,0,0-.81.16.56.56,0,0,0-.26.5.47.47,0,0,0,.19.39,2.47,2.47,0,0,0,.77.27l.24.05a2.32,2.32,0,0,1,1.09.47,1,1,0,0,1,.32.83,1.15,1.15,0,0,1-.48,1,2.22,2.22,0,0,1-1.32.35,3.85,3.85,0,0,1-.74-.07,5.5,5.5,0,0,1-.8-.2v-.74a4.61,4.61,0,0,0,.79.31,2.84,2.84,0,0,0,.76.1,1.5,1.5,0,0,0,.78-.17.57.57,0,0,0,.28-.49.54.54,0,0,0-.2-.45,2.18,2.18,0,0,0-.87-.3l-.25-.06a2,2,0,0,1-1-.43,1.07,1.07,0,0,1-.3-.8,1.16,1.16,0,0,1,.44-1,2,2,0,0,1,1.24-.33,4.38,4.38,0,0,1,.75.06A3.09,3.09,0,0,1,153.15,23.78Z" transform="translate(-1.05 -9.93)"/><path d="M29.53,77.43a1.48,1.48,0,0,1,1.35.78,5.73,5.73,0,0,1,0,4.5,1.57,1.57,0,0,1-2.7,0,5.73,5.73,0,0,1,0-4.5A1.48,1.48,0,0,1,29.53,77.43Zm0,.63a.88.88,0,0,0-.82.6,5.93,5.93,0,0,0,0,3.6.88.88,0,0,0,.82.6.89.89,0,0,0,.83-.6,6.14,6.14,0,0,0,0-3.6A.89.89,0,0,0,29.53,78.06Z" transform="translate(-1.05 -9.93)"/><path d="M32.59,82.38h.74v1h-.74Z" transform="translate(-1.05 -9.93)"/><path d="M37.89,77.67v.72a2.45,2.45,0,0,0-.54-.22,2,2,0,0,0-.54-.07,1.22,1.22,0,0,0-1.07.52,3,3,0,0,0-.42,1.6,1.37,1.37,0,0,1,.52-.52,1.3,1.3,0,0,1,.68-.18,1.54,1.54,0,0,1,1.25.53,2.48,2.48,0,0,1,0,2.89,1.63,1.63,0,0,1-1.28.54,1.53,1.53,0,0,1-1.39-.77,4.33,4.33,0,0,1-.48-2.25,3.7,3.7,0,0,1,.59-2.2,1.85,1.85,0,0,1,1.58-.83,2.48,2.48,0,0,1,.54.06A3.39,3.39,0,0,1,37.89,77.67Zm-1.41,2.47a.92.92,0,0,0-.76.36,1.67,1.67,0,0,0-.28,1,1.62,1.62,0,0,0,.28,1,1,1,0,0,0,1.52,0,1.55,1.55,0,0,0,.28-1,1.6,1.6,0,0,0-.28-1A.92.92,0,0,0,36.48,80.14Z" transform="translate(-1.05 -9.93)"/><path d="M29.53,60.45a1.48,1.48,0,0,1,1.35.78,5.73,5.73,0,0,1,0,4.5,1.57,1.57,0,0,1-2.7,0,5.73,5.73,0,0,1,0-4.5A1.48,1.48,0,0,1,29.53,60.45Zm0,.63a.88.88,0,0,0-.82.6,5.93,5.93,0,0,0,0,3.6.88.88,0,0,0,.82.6.89.89,0,0,0,.83-.6,6.14,6.14,0,0,0,0-3.6A.89.89,0,0,0,29.53,61.08Z" transform="translate(-1.05 -9.93)"/><path d="M32.59,65.4h.74v1h-.74Z" transform="translate(-1.05 -9.93)"/><path d="M34.69,60.56h3.38v.34l-1.91,5.49h-.73l1.78-5.17H34.69Z" transform="translate(-1.05 -9.93)"/><path d="M29.53,42.87a1.49,1.49,0,0,1,1.35.77,4.45,4.45,0,0,1,.46,2.25,4.4,4.4,0,0,1-.46,2.25,1.56,1.56,0,0,1-2.7,0,4.4,4.4,0,0,1-.46-2.25,4.45,4.45,0,0,1,.46-2.25A1.49,1.49,0,0,1,29.53,42.87Zm0,.62a.88.88,0,0,0-.82.6,4.39,4.39,0,0,0-.28,1.8,4.39,4.39,0,0,0,.28,1.8.88.88,0,0,0,.82.6.89.89,0,0,0,.83-.6,4.59,4.59,0,0,0,.27-1.8,4.59,4.59,0,0,0-.27-1.8A.89.89,0,0,0,29.53,43.49Z" transform="translate(-1.05 -9.93)"/><path d="M32.59,47.81h.74v1h-.74Z" transform="translate(-1.05 -9.93)"/><path d="M35.68,45.7a1.26,1.26,0,0,1-.71-.47,1.58,1.58,0,0,1,.2-2,2.08,2.08,0,0,1,2.45,0,1.58,1.58,0,0,1,.2,2,1.26,1.26,0,0,1-.71.47,1.39,1.39,0,0,1,.8.52,1.54,1.54,0,0,1,.28.94,1.72,1.72,0,0,1-.46,1.3,2.17,2.17,0,0,1-2.67,0,1.72,1.72,0,0,1-.47-1.3,1.55,1.55,0,0,1,.29-.94A1.43,1.43,0,0,1,35.68,45.7Zm.71.33a1,1,0,0,0-.79.31,1.32,1.32,0,0,0,0,1.65,1.2,1.2,0,0,0,1.59,0,1.12,1.12,0,0,0,.29-.83,1.1,1.1,0,0,0-.29-.82A1,1,0,0,0,36.39,46Zm-1-1.58a1,1,0,0,0,.25.71,1.15,1.15,0,0,0,1.43,0,1.09,1.09,0,0,0,0-1.41,1.11,1.11,0,0,0-1.43,0A.94.94,0,0,0,35.43,44.45Z" transform="translate(-1.05 -9.93)"/><path d="M30.53,26.5a1.47,1.47,0,0,1,1.35.77,4.45,4.45,0,0,1,.46,2.25,4.45,4.45,0,0,1-.46,2.25,1.56,1.56,0,0,1-2.7,0,4.45,4.45,0,0,1-.46-2.25,4.45,4.45,0,0,1,.46-2.25A1.47,1.47,0,0,1,30.53,26.5Zm0,.62a.88.88,0,0,0-.82.6,4.39,4.39,0,0,0-.28,1.8,4.39,4.39,0,0,0,.28,1.8.88.88,0,0,0,.82.6.89.89,0,0,0,.83-.6,4.59,4.59,0,0,0,.27-1.8,4.59,4.59,0,0,0-.27-1.8A.89.89,0,0,0,30.53,27.12Z" transform="translate(-1.05 -9.93)"/><path d="M33.59,31.44h.74v1h-.74Z" transform="translate(-1.05 -9.93)"/><path d="M35.89,32.31v-.72a2.34,2.34,0,0,0,.55.22,2,2,0,0,0,.54.07,1.24,1.24,0,0,0,1.07-.52,3,3,0,0,0,.42-1.6,1.34,1.34,0,0,1-.51.52,1.37,1.37,0,0,1-.69.18A1.57,1.57,0,0,1,36,29.93a2.14,2.14,0,0,1-.46-1.45A2.09,2.09,0,0,1,36,27a1.61,1.61,0,0,1,1.27-.54,1.53,1.53,0,0,1,1.39.77,4.33,4.33,0,0,1,.48,2.25,3.7,3.7,0,0,1-.59,2.2,1.85,1.85,0,0,1-1.58.83,2.64,2.64,0,0,1-.55-.06A3.71,3.71,0,0,1,35.89,32.31Zm1.42-2.47a.92.92,0,0,0,.76-.36,1.67,1.67,0,0,0,.28-1,1.62,1.62,0,0,0-.28-1,1,1,0,0,0-1.52,0,1.62,1.62,0,0,0-.28,1,1.67,1.67,0,0,0,.28,1A.92.92,0,0,0,37.31,29.84Z" transform="translate(-1.05 -9.93)"/><path d="M35,15.1h1.16V10.65l-1.27.28v-.72l1.26-.28h.71V15.1H38v.66H35Z" transform="translate(-1.05 -9.93)"/><path d="M20.13,94.31v.83a2.65,2.65,0,0,0-.77-.56,2.11,2.11,0,0,0-.86-.18,1.67,1.67,0,0,0-1.38.61,2.83,2.83,0,0,0-.48,1.77,2.78,2.78,0,0,0,.48,1.76,1.64,1.64,0,0,0,1.38.61,2.11,2.11,0,0,0,.86-.18,2.61,2.61,0,0,0,.77-.55v.82a2.62,2.62,0,0,1-.79.42,2.58,2.58,0,0,1-.88.14A2.33,2.33,0,0,1,16.58,99a3.95,3.95,0,0,1,0-4.43,2.33,2.33,0,0,1,1.88-.81,2.91,2.91,0,0,1,.89.14A2.46,2.46,0,0,1,20.13,94.31Z" transform="translate(-1.05 -9.93)"/><path d="M23.83,97.05v2.64h-.65V97.07a1.68,1.68,0,0,0-.21-.93.78.78,0,0,0-.66-.31,1,1,0,0,0-.82.38,1.54,1.54,0,0,0-.31,1v2.47h-.65V93.61h.65V96a1.75,1.75,0,0,1,.55-.59,1.44,1.44,0,0,1,.73-.19,1.17,1.17,0,0,1,1,.47A2.22,2.22,0,0,1,23.83,97.05Z" transform="translate(-1.05 -9.93)"/><path d="M27.56,97.19v2.5h-.65V99a1.41,1.41,0,0,1-.55.58,1.57,1.57,0,0,1-.81.19,1.27,1.27,0,0,1-1-.37,1.4,1.4,0,0,1-.35-1,1.36,1.36,0,0,1,.44-1.12A2,2,0,0,1,26,96.93h.9v-.07a1,1,0,0,0-.29-.77,1.18,1.18,0,0,0-.83-.27,2.37,2.37,0,0,0-.65.09,2.43,2.43,0,0,0-.62.27v-.67a4.21,4.21,0,0,1,.69-.22,3,3,0,0,1,.65-.08,1.59,1.59,0,0,1,1.28.49A2.26,2.26,0,0,1,27.56,97.19Zm-1.29.3a2.16,2.16,0,0,0-1.09.2.75.75,0,0,0-.3.68.84.84,0,0,0,.23.61.82.82,0,0,0,.61.22,1.05,1.05,0,0,0,.87-.42,1.85,1.85,0,0,0,.32-1.13v-.16Z" transform="translate(-1.05 -9.93)"/><path d="M31.53,97.05v2.64h-.65V97.07a1.68,1.68,0,0,0-.22-.93.77.77,0,0,0-.65-.31,1,1,0,0,0-.83.38,1.54,1.54,0,0,0-.3,1v2.47h-.66V95.32h.66V96a1.64,1.64,0,0,1,.54-.59,1.44,1.44,0,0,1,.73-.19,1.2,1.2,0,0,1,1,.47A2.29,2.29,0,0,1,31.53,97.05Z" transform="translate(-1.05 -9.93)"/><path d="M35,95.48v.67a2.94,2.94,0,0,0-.55-.25,2.16,2.16,0,0,0-.56-.08,1.19,1.19,0,0,0-1,.44,2.39,2.39,0,0,0,0,2.49,1.16,1.16,0,0,0,1,.44,1.81,1.81,0,0,0,.56-.08,2.94,2.94,0,0,0,.55-.25v.66a2,2,0,0,1-.56.21,2.51,2.51,0,0,1-.62.07,1.73,1.73,0,0,1-1.41-.62,2.93,2.93,0,0,1,0-3.36,1.82,1.82,0,0,1,1.45-.61,2.32,2.32,0,0,1,.59.07A2.27,2.27,0,0,1,35,95.48Z" transform="translate(-1.05 -9.93)"/><path d="M38.86,97.32v.35h-3a1.79,1.79,0,0,0,.41,1.14,1.32,1.32,0,0,0,1,.38,2.46,2.46,0,0,0,.72-.1,2.84,2.84,0,0,0,.7-.3v.68a3.84,3.84,0,0,1-.72.25,3.05,3.05,0,0,1-.74.08,1.88,1.88,0,0,1-1.49-.61,2.32,2.32,0,0,1-.55-1.64,2.59,2.59,0,0,1,.52-1.71,1.74,1.74,0,0,1,1.41-.63,1.54,1.54,0,0,1,1.26.57A2.41,2.41,0,0,1,38.86,97.32Zm-.65-.21a1.45,1.45,0,0,0-.3-.94.94.94,0,0,0-.76-.35,1.15,1.15,0,0,0-.87.34,1.47,1.47,0,0,0-.37,1Z" transform="translate(-1.05 -9.93)"/><path d="M212.63,94v.83a2.44,2.44,0,0,0-.77-.55,2,2,0,0,0-.86-.19,1.67,1.67,0,0,0-1.38.61,2.83,2.83,0,0,0-.48,1.77,2.78,2.78,0,0,0,.48,1.76,1.65,1.65,0,0,0,1.38.62,2.11,2.11,0,0,0,.86-.19,2.61,2.61,0,0,0,.77-.55v.82a2.62,2.62,0,0,1-.79.42,2.58,2.58,0,0,1-.88.14,2.33,2.33,0,0,1-1.88-.81,3.95,3.95,0,0,1,0-4.43,2.33,2.33,0,0,1,1.88-.81,2.91,2.91,0,0,1,.89.14A2.46,2.46,0,0,1,212.63,94Z" transform="translate(-1.05 -9.93)"/><path d="M216.33,96.74v2.64h-.65V96.76a1.6,1.6,0,0,0-.22-.93.74.74,0,0,0-.65-.3,1,1,0,0,0-.82.37,1.49,1.49,0,0,0-.31,1v2.47H213V93.3h.65v2.39a1.66,1.66,0,0,1,.55-.59,1.35,1.35,0,0,1,.73-.2,1.19,1.19,0,0,1,1,.47A2.22,2.22,0,0,1,216.33,96.74Z" transform="translate(-1.05 -9.93)"/><path d="M220.06,96.88v2.5h-.65v-.66a1.41,1.41,0,0,1-.55.58,1.57,1.57,0,0,1-.81.19,1.27,1.27,0,0,1-1-.37,1.4,1.4,0,0,1-.35-1,1.36,1.36,0,0,1,.44-1.12,2,2,0,0,1,1.32-.37h.91v-.07a1,1,0,0,0-.29-.77,1.18,1.18,0,0,0-.83-.27,2.37,2.37,0,0,0-.65.09,2.43,2.43,0,0,0-.62.27V95.2a4.21,4.21,0,0,1,.69-.22,3,3,0,0,1,.65-.08,1.59,1.59,0,0,1,1.28.49A2.26,2.26,0,0,1,220.06,96.88Zm-1.29.3a2.16,2.16,0,0,0-1.09.2.75.75,0,0,0-.3.68.78.78,0,0,0,.84.83,1.05,1.05,0,0,0,.87-.42,1.85,1.85,0,0,0,.32-1.13v-.16Z" transform="translate(-1.05 -9.93)"/><path d="M224,96.74v2.64h-.64V96.76a1.68,1.68,0,0,0-.22-.93.77.77,0,0,0-.65-.3,1,1,0,0,0-.83.37,1.54,1.54,0,0,0-.3,1v2.47h-.66V95h.66v.68a1.56,1.56,0,0,1,.54-.59,1.35,1.35,0,0,1,.73-.2,1.22,1.22,0,0,1,1,.47A2.29,2.29,0,0,1,224,96.74Z" transform="translate(-1.05 -9.93)"/><path d="M227.51,95.17v.68a2.47,2.47,0,0,0-.55-.26,2.16,2.16,0,0,0-.56-.08,1.19,1.19,0,0,0-1,.44,2,2,0,0,0-.35,1.25,2,2,0,0,0,.35,1.24,1.16,1.16,0,0,0,1,.44,1.81,1.81,0,0,0,.56-.08,2.94,2.94,0,0,0,.55-.25v.66a2,2,0,0,1-.56.21,2.51,2.51,0,0,1-.62.07,1.73,1.73,0,0,1-1.41-.62,2.93,2.93,0,0,1,0-3.36,1.81,1.81,0,0,1,1.45-.61A2.32,2.32,0,0,1,227,95,2.27,2.27,0,0,1,227.51,95.17Z" transform="translate(-1.05 -9.93)"/><path d="M231.36,97v.35h-3a1.74,1.74,0,0,0,.41,1.14,1.32,1.32,0,0,0,1,.38,2.46,2.46,0,0,0,.72-.1,2.84,2.84,0,0,0,.7-.3v.68a3.84,3.84,0,0,1-.72.25,3.05,3.05,0,0,1-.74.08,1.88,1.88,0,0,1-1.49-.61,2.32,2.32,0,0,1-.55-1.64,2.59,2.59,0,0,1,.52-1.71,1.74,1.74,0,0,1,1.41-.63,1.54,1.54,0,0,1,1.26.57A2.41,2.41,0,0,1,231.36,97Zm-.65-.21a1.47,1.47,0,0,0-.3-.94,1,1,0,0,0-.76-.35,1.15,1.15,0,0,0-.87.34,1.56,1.56,0,0,0-.38,1Z" transform="translate(-1.05 -9.93)"/></svg>